<svg width="286" height="79" viewBox="0 0 286 79" fill="none" xmlns="http://www.w3.org/2000/svg">
<path d="M6.65467 63.0832L4.65467 63.0838L4.65532 65.0838L6.65532 65.0832L6.65467 63.0832ZM6.6396 16.5377L6.63895 14.5377L4.63895 14.5384L4.6396 16.5384L6.6396 16.5377ZM31.3221 18.507L30.334 20.2459L30.3407 20.2497L30.3475 20.2535L31.3221 18.507ZM36.5056 23.8008L34.7195 24.7007L34.7195 24.7007L36.5056 23.8008ZM36.5104 38.7326L34.7213 37.8388L34.7165 37.8485L36.5104 38.7326ZM31.3758 44.0979L32.365 45.8362L32.3735 45.8313L31.3758 44.0979ZM11.1946 46.0817L9.19462 46.0824L9.19527 48.0824L11.1953 48.0817L11.1946 46.0817ZM11.193 41.0817L11.1924 39.0817L9.19235 39.0824L9.193 41.0824L11.193 41.0817ZM28.3062 39.7807L27.3153 38.0435L27.3153 38.0435L28.3062 39.7807ZM31.6005 36.2797L29.7898 35.4304L29.786 35.4386L31.6005 36.2797ZM31.5973 26.2569L29.7833 27.0992L29.7869 27.1069L29.7905 27.1145L31.5973 26.2569ZM28.278 22.8035L27.3087 24.5529L27.3154 24.5566L27.3221 24.5602L28.278 22.8035ZM12.2776 21.5359L12.2769 19.5359L10.2769 19.5366L10.2776 21.5366L12.2776 21.5359ZM12.291 63.0814L12.2917 65.0814L14.2917 65.0807L14.291 63.0807L12.291 63.0814ZM8.65467 63.0825L8.6396 16.5371L4.6396 16.5384L4.65467 63.0838L8.65467 63.0825ZM6.64025 18.5377L22.3675 18.5326L22.3662 14.5326L6.63895 14.5377L6.64025 18.5377ZM22.3675 18.5326C25.7948 18.5315 28.4078 19.1515 30.334 20.2459L32.3101 16.7681C29.5991 15.2277 26.2419 14.5314 22.3662 14.5326L22.3675 18.5326ZM30.3475 20.2535C32.3585 21.3757 33.7905 22.8567 34.7195 24.7007L38.2917 22.9009C36.9768 20.2911 34.9531 18.2429 32.2966 16.7605L30.3475 20.2535ZM34.7195 24.7007C35.6873 26.6217 36.189 28.7937 36.1898 31.2554L40.1898 31.2541C40.1888 28.2311 39.5678 25.4337 38.2917 22.9009L34.7195 24.7007ZM36.1898 31.2554C36.1906 33.717 35.6903 35.8991 34.7213 37.8388L38.2996 39.6265C39.5715 37.0806 40.1908 34.2774 40.1898 31.2541L36.1898 31.2554ZM34.7165 37.8485C33.7989 39.7104 32.3772 41.2139 30.3781 42.3645L32.3735 45.8313C35.0099 44.3138 37.0113 42.2404 38.3044 39.6167L34.7165 37.8485ZM30.3866 42.3597C28.459 43.4566 25.8603 44.077 22.4667 44.0781L22.468 48.0781C26.3168 48.0768 29.6571 47.3771 32.365 45.8362L30.3866 42.3597ZM22.4667 44.0781L11.194 44.0817L11.1953 48.0817L22.468 48.0781L22.4667 44.0781ZM13.1946 46.0811L13.193 41.0811L9.193 41.0824L9.19462 46.0824L13.1946 46.0811ZM11.1937 43.0817L22.2846 43.0781L22.2833 39.0781L11.1924 39.0817L11.1937 43.0817ZM22.2846 43.0781C24.9902 43.0773 27.3777 42.6129 29.2972 41.518L27.3153 38.0435C26.205 38.6768 24.5776 39.0774 22.2833 39.0781L22.2846 43.0781ZM29.2972 41.518C31.1439 40.4645 32.5454 38.997 33.4151 37.1207L29.786 35.4386C29.293 36.5022 28.4983 37.3687 27.3153 38.0435L29.2972 41.518ZM33.4113 37.1289C34.2485 35.3438 34.6451 33.3733 34.6444 31.2559L30.6444 31.2572C30.6449 32.8672 30.3456 34.2454 29.7898 35.4304L33.4113 37.1289ZM34.6444 31.2559C34.6437 29.1391 34.246 27.1731 33.4041 25.3994L29.7905 27.1145C30.3435 28.2797 30.6438 29.6468 30.6444 31.2572L34.6444 31.2559ZM33.4113 25.4147C32.5345 23.5262 31.111 22.0681 29.2339 21.0467L27.3221 24.5602C28.5061 25.2045 29.2955 26.0487 29.7833 27.0992L33.4113 25.4147ZM29.2472 21.054C27.3167 19.9844 24.914 19.5318 22.186 19.5327L22.1873 23.5327C24.5199 23.5319 26.1782 23.9265 27.3087 24.5529L29.2472 21.054ZM22.186 19.5327L12.2769 19.5359L12.2782 23.5359L22.1873 23.5327L22.186 19.5327ZM10.2776 21.5366L10.291 63.082L14.291 63.0807L14.2776 21.5353L10.2776 21.5366ZM12.2904 61.0814L6.65403 61.0832L6.65532 65.0832L12.2917 65.0814L12.2904 61.0814ZM46.5524 63.0703L44.5524 63.0709L44.553 65.0709L46.553 65.0703L46.5524 63.0703ZM46.5411 28.1612L46.5404 26.1612L44.5404 26.1618L44.5411 28.1618L46.5411 28.1612ZM51.9047 28.1594L53.9047 28.1588L53.9041 26.1588L51.9041 26.1594L51.9047 28.1594ZM51.916 63.0685L51.9167 65.0685L53.9167 65.0679L53.916 63.0679L51.916 63.0685ZM46.5616 21.2748L45.1776 22.7186L45.1849 22.7256L45.1922 22.7325L46.5616 21.2748ZM46.5599 16.1384L45.1896 14.6816L45.1823 14.6885L45.175 14.6955L46.5599 16.1384ZM51.9463 16.1367L50.5623 17.5805L50.5696 17.5875L50.5769 17.5944L51.9463 16.1367ZM51.948 21.2731L50.5777 19.8163L50.5703 19.8232L50.563 19.8302L51.948 21.2731ZM48.5524 63.0696L48.5411 28.1605L44.5411 28.1618L44.5524 63.0709L48.5524 63.0696ZM46.5417 30.1612L51.9054 30.1594L51.9041 26.1594L46.5404 26.1612L46.5417 30.1612ZM49.9047 28.1601L49.916 63.0692L53.916 63.0679L53.9047 28.1588L49.9047 28.1601ZM51.9154 61.0685L46.5518 61.0703L46.553 65.0703L51.9167 65.0685L51.9154 61.0685ZM49.2658 20.3421C48.7263 20.3423 48.3155 20.1783 47.9309 19.8171L45.1922 22.7325C46.3233 23.795 47.7158 24.3426 49.2671 24.3421L49.2658 20.3421ZM47.9456 19.831C47.5835 19.484 47.4473 19.1441 47.4471 18.7063L43.4471 18.7076C43.4476 20.2699 44.0543 21.6419 45.1776 22.7186L47.9456 19.831ZM47.4471 18.7063C47.447 18.2686 47.583 17.9286 47.9448 17.5814L45.175 14.6955C44.0524 15.773 43.4466 17.1454 43.4471 18.7076L47.4471 18.7063ZM47.9302 17.5953C48.3145 17.2338 48.7252 17.0696 49.2648 17.0694L49.2635 13.0694C47.7121 13.0699 46.32 13.6184 45.1896 14.6816L47.9302 17.5953ZM49.2648 17.0694C49.8036 17.0692 50.1989 17.2321 50.5623 17.5805L53.3303 14.6929C52.2084 13.6175 50.8156 13.0689 49.2635 13.0694L49.2648 17.0694ZM50.5769 17.5944C50.9505 17.9453 51.0833 18.2813 51.0835 18.7052L55.0835 18.7039C55.083 17.1277 54.4577 15.7518 53.3156 14.679L50.5769 17.5944ZM51.0835 18.7052C51.0836 19.129 50.951 19.4651 50.5777 19.8163L53.3182 22.7299C54.4596 21.6563 55.084 20.28 55.0835 18.7039L51.0835 18.7052ZM50.563 19.8302C50.1998 20.1788 49.8046 20.3419 49.2658 20.3421L49.2671 24.3421C50.8192 24.3416 52.2117 23.7921 53.3329 22.716L50.563 19.8302ZM60.7399 63.0657L58.7399 63.0663L58.7405 65.0663L60.7405 65.0657L60.7399 63.0657ZM60.7386 58.9748L59.1601 57.7466L58.7384 58.2886L58.7386 58.9754L60.7386 58.9748ZM80.5485 33.5138L82.127 34.742L82.5487 34.1999L82.5485 33.5132L80.5485 33.5138ZM80.5484 33.1502L82.5484 33.1495L82.5477 31.1495L80.5477 31.1502L80.5484 33.1502ZM61.3666 33.1564L59.3666 33.157L59.3672 35.157L61.3672 35.1564L61.3666 33.1564ZM61.365 28.1564L61.3643 26.1564L59.3643 26.157L59.365 28.157L61.365 28.1564ZM87.4559 28.1479L89.4559 28.1473L89.4552 26.1473L87.4552 26.1479L87.4559 28.1479ZM87.4572 32.4207L89.048 33.6329L89.4575 33.0956L89.4572 32.42L87.4572 32.4207ZM68.1927 57.6996L66.602 56.4874L66.1925 57.0247L66.1927 57.7003L68.1927 57.6996ZM68.1928 58.0633L66.1928 58.0639L66.1935 60.0639L68.1935 60.0633L68.1928 58.0633ZM88.1019 58.0568L90.1019 58.0562L90.1013 56.0562L88.1013 56.0568L88.1019 58.0568ZM88.1035 63.0568L88.1042 65.0568L90.1042 65.0562L90.1035 63.0562L88.1035 63.0568ZM62.7399 63.065L62.7386 58.9741L58.7386 58.9754L58.7399 63.0663L62.7399 63.065ZM62.3171 60.2029L82.127 34.742L78.97 32.2857L59.1601 57.7466L62.3171 60.2029ZM82.5485 33.5132L82.5484 33.1495L78.5484 33.1508L78.5485 33.5145L82.5485 33.5132ZM80.5477 31.1502L61.3659 31.1564L61.3672 35.1564L80.549 35.1502L80.5477 31.1502ZM63.3666 33.1557L63.365 28.1557L59.365 28.157L59.3666 33.157L63.3666 33.1557ZM61.3656 30.1564L87.4565 30.1479L87.4552 26.1479L61.3643 26.1564L61.3656 30.1564ZM85.4559 28.1486L85.4572 32.4213L89.4572 32.42L89.4559 28.1473L85.4559 28.1486ZM85.8665 31.2084L66.602 56.4874L69.7834 58.9119L89.048 33.6329L85.8665 31.2084ZM66.1927 57.7003L66.1928 58.0639L70.1928 58.0626L70.1927 57.699L66.1927 57.7003ZM68.1935 60.0633L88.1026 60.0568L88.1013 56.0568L68.1922 56.0633L68.1935 60.0633ZM86.1019 58.0575L86.1035 63.0575L90.1035 63.0562L90.1019 58.0562L86.1019 58.0575ZM88.1029 61.0568L60.7393 61.0657L60.7405 65.0657L88.1042 65.0568L88.1029 61.0568ZM95.3649 63.0545L93.3649 63.0551L93.3655 65.0551L95.3655 65.0545L95.3649 63.0545ZM95.3636 58.9636L93.7851 57.7354L93.3633 58.2774L93.3636 58.9642L95.3636 58.9636ZM115.174 33.5026L116.752 34.7307L117.174 34.1887L117.174 33.5019L115.174 33.5026ZM115.173 33.139L117.173 33.1383L117.173 31.1383L115.173 31.139L115.173 33.139ZM95.9916 33.1452L93.9916 33.1458L93.9922 35.1458L95.9922 35.1452L95.9916 33.1452ZM95.99 28.1452L95.9893 26.1452L93.9893 26.1458L93.99 28.1458L95.99 28.1452ZM122.081 28.1367L124.081 28.1361L124.08 26.1361L122.08 26.1367L122.081 28.1367ZM122.082 32.4094L123.673 33.6217L124.082 33.0844L124.082 32.4088L122.082 32.4094ZM102.818 57.6884L101.227 56.4762L100.817 57.0135L100.818 57.6891L102.818 57.6884ZM102.818 58.052L100.818 58.0527L100.818 60.0527L102.818 60.052L102.818 58.052ZM122.727 58.0456L124.727 58.045L124.726 56.045L122.726 56.0456L122.727 58.0456ZM122.729 63.0456L122.729 65.0456L124.729 65.045L124.729 63.045L122.729 63.0456ZM97.3649 63.0538L97.3636 58.9629L93.3636 58.9642L93.3649 63.0551L97.3649 63.0538ZM96.9421 60.1917L116.752 34.7307L113.595 32.2744L93.7851 57.7354L96.9421 60.1917ZM117.174 33.5019L117.173 33.1383L113.173 33.1396L113.174 33.5032L117.174 33.5019ZM115.173 31.139L95.9909 31.1452L95.9922 35.1452L115.174 35.139L115.173 31.139ZM97.9916 33.1445L97.99 28.1445L93.99 28.1458L93.9916 33.1458L97.9916 33.1445ZM95.9906 30.1452L122.082 30.1367L122.08 26.1367L95.9893 26.1452L95.9906 30.1452ZM120.081 28.1374L120.082 32.4101L124.082 32.4088L124.081 28.1361L120.081 28.1374ZM120.492 31.1972L101.227 56.4762L104.408 58.9007L123.673 33.6217L120.492 31.1972ZM100.818 57.6891L100.818 58.0527L104.818 58.0514L104.818 57.6878L100.818 57.6891ZM102.818 60.052L122.728 60.0456L122.726 56.0456L102.817 56.052L102.818 60.052ZM120.727 58.0462L120.729 63.0462L124.729 63.045L124.727 58.045L120.727 58.0462ZM122.728 61.0456L95.3642 61.0545L95.3655 65.0545L122.729 65.0456L122.728 61.0456ZM135.24 62.6097L134.389 64.4197L134.401 64.4255L135.24 62.6097ZM130.943 58.952L129.275 60.0547L129.279 60.062L130.943 58.952ZM130.531 48.2703L132.22 49.3409L132.226 49.3316L130.531 48.2703ZM138.052 43.7225L138.48 45.676L138.494 45.6729L138.052 43.7225ZM142.892 42.8572L142.637 40.8737L142.632 40.8742L142.892 42.8572ZM148.051 42.2419L148.258 44.2313L148.268 44.2302L148.278 44.2291L148.051 42.2419ZM150.96 41.491L149.981 39.747L149.972 39.7522L149.963 39.7575L150.96 41.491ZM150.049 34.264L148.618 35.6612L148.626 35.67L150.049 34.264ZM138.503 34.0859L139.725 35.6696L139.725 35.6696L138.503 34.0859ZM135.436 37.6778L134.764 39.5615L136.483 40.1747L137.251 38.5195L135.436 37.6778ZM130.345 35.8613L128.506 35.0741L127.669 37.03L129.673 37.745L130.345 35.8613ZM133.979 30.9056L135.21 32.4822L135.212 32.4805L133.979 30.9056ZM138.979 28.404L139.483 30.3392L139.495 30.3363L138.979 28.404ZM148.206 28.0828L147.838 30.0487L147.85 30.0508L147.861 30.0529L148.206 28.0828ZM152.456 29.6951L151.428 31.4104L151.436 31.4154L152.456 29.6951ZM155.889 33.3985L154.138 34.3635L154.138 34.3635L155.889 33.3985ZM157.263 63.0344L157.263 65.0344L159.263 65.0338L159.263 63.0338L157.263 63.0344ZM151.899 63.0362L149.899 63.0368L149.9 65.0368L151.9 65.0362L151.899 63.0362ZM151.897 58.3089L153.897 58.3082L153.897 56.3082L151.897 56.3089L151.897 58.3089ZM151.625 58.309L151.624 56.309L150.366 56.3094L149.821 57.4441L151.625 58.309ZM149.807 60.7414L151.234 62.1426L151.234 62.1426L149.807 60.7414ZM146.422 62.947L145.631 61.11L145.631 61.11L146.422 62.947ZM147.443 57.7876L146.456 56.0481L146.448 56.0525L147.443 57.7876ZM150.76 54.5592L149.026 53.5632L149.021 53.5708L149.017 53.5783L150.76 54.5592ZM151.893 45.4907L153.893 45.49L153.892 39.9659L150.356 44.2108L151.893 45.4907ZM150.394 46.2412L150.933 48.1669L150.946 48.1634L150.958 48.1597L150.394 46.2412ZM147.757 46.8102L148.062 48.7869L148.074 48.785L148.087 48.7829L147.757 46.8102ZM144.871 47.2202L145.1 49.2071L145.114 49.2055L145.128 49.2037L144.871 47.2202ZM142.621 47.4937L142.881 49.4768L142.883 49.4765L142.621 47.4937ZM138.712 48.3813L139.338 50.2809L139.345 50.2785L139.353 50.2761L138.712 48.3813ZM135.804 50.1777L134.335 48.8205L134.334 48.8216L135.804 50.1777ZM136.784 57.632L135.646 59.2767L135.656 59.2838L135.666 59.2909L136.784 57.632ZM141.262 61.8578C139.307 61.8584 137.59 61.4921 136.078 60.794L134.401 64.4255C136.496 65.3929 138.795 65.8586 141.264 65.8578L141.262 61.8578ZM136.091 60.7998C134.602 60.1 133.457 59.1166 132.607 57.8421L129.279 60.062C130.551 61.9686 132.27 63.4236 134.389 64.4196L136.091 60.7998ZM132.612 57.8494C131.803 56.626 131.351 55.0868 131.35 53.1337L127.35 53.135C127.351 55.7274 127.961 58.0666 129.275 60.0547L132.612 57.8494ZM131.35 53.1337C131.35 51.381 131.696 50.1674 132.22 49.3409L128.841 47.1998C127.79 48.8586 127.35 50.8878 127.35 53.135L131.35 53.1337ZM132.226 49.3316C132.828 48.3698 133.623 47.6239 134.64 47.0741L132.738 43.5554C131.118 44.4308 129.808 45.6552 128.835 47.2091L132.226 49.3316ZM134.64 47.0741C135.78 46.4577 137.056 45.9884 138.48 45.676L137.623 41.7689C135.866 42.1545 134.233 42.7467 132.738 43.5554L134.64 47.0741ZM138.494 45.6729C140.04 45.3223 141.593 45.0448 143.153 44.8403L142.632 40.8742C140.95 41.095 139.275 41.3943 137.61 41.772L138.494 45.6729ZM143.148 44.8408C145.261 44.5684 146.963 44.3656 148.258 44.2313L147.845 40.2526C146.504 40.3918 144.766 40.5992 142.637 40.8737L143.148 44.8408ZM148.278 44.2291C149.679 44.0694 150.985 43.7841 151.958 43.2245L149.963 39.7575C149.723 39.8953 149.09 40.1106 147.825 40.2548L148.278 44.2291ZM151.939 43.235C153.335 42.4513 153.892 41.077 153.891 39.6719L149.891 39.6732C149.891 39.8706 149.856 39.908 149.879 39.8633C149.89 39.8404 149.91 39.8116 149.936 39.7846C149.948 39.7721 149.96 39.7626 149.968 39.7559C149.977 39.7493 149.982 39.7467 149.981 39.747L151.939 43.235ZM153.891 39.6719L153.891 39.49L149.891 39.4913L149.891 39.6732L153.891 39.6719ZM153.891 39.49C153.891 36.8776 153.166 34.5724 151.471 32.858L148.626 35.67C149.387 36.4397 149.891 37.619 149.891 39.4913L153.891 39.49ZM151.48 32.8669C149.755 31.1005 147.303 30.4013 144.525 30.4022L144.526 34.4022C146.688 34.4015 147.917 34.9434 148.618 35.6611L151.48 32.8669ZM144.525 30.4022C141.693 30.4031 139.2 31.0224 137.282 32.5023L139.725 35.6696C140.714 34.9062 142.236 34.4029 144.526 34.4022L144.525 30.4022ZM137.282 32.5023C135.649 33.7617 134.383 35.196 133.622 36.8362L137.251 38.5195C137.671 37.6138 138.449 36.6535 139.725 35.6696L137.282 32.5023ZM136.108 35.7941L131.017 33.9776L129.673 37.745L134.764 39.5615L136.108 35.7941ZM132.183 36.6486C132.985 34.7751 134.01 33.4189 135.21 32.4822L132.749 29.329C130.919 30.7569 129.521 32.7045 128.506 35.0741L132.183 36.6486ZM135.212 32.4805C136.536 31.4443 137.957 30.7375 139.483 30.3392L138.474 26.4687C136.395 27.011 134.483 27.9719 132.747 29.3307L135.212 32.4805ZM139.495 30.3363C141.156 29.8926 142.771 29.6755 144.343 29.675L144.341 25.675C142.398 25.6756 140.437 25.9445 138.463 26.4717L139.495 30.3363ZM144.343 29.675C145.308 29.6746 146.469 29.7924 147.838 30.0487L148.574 26.1169C147.034 25.8287 145.618 25.6745 144.341 25.675L144.343 29.675ZM147.861 30.0529C149.074 30.265 150.26 30.7104 151.428 31.4104L153.485 27.9797C151.924 27.0442 150.277 26.4148 148.55 26.1127L147.861 30.0529ZM151.436 31.4154C152.458 32.0213 153.37 32.9694 154.138 34.3635L157.641 32.4335C156.59 30.5252 155.213 29.0043 153.476 27.9748L151.436 31.4154ZM154.138 34.3635C154.826 35.6126 155.254 37.4521 155.255 40.0351L159.255 40.0338C159.254 37.0713 158.772 34.4868 157.641 32.4335L154.138 34.3635ZM155.255 40.0351L155.263 63.0351L159.263 63.0338L159.255 40.0338L155.255 40.0351ZM157.262 61.0344L151.898 61.0362L151.9 65.0362L157.263 65.0344L157.262 61.0344ZM153.899 63.0355L153.897 58.3082L149.897 58.3095L149.899 63.0368L153.899 63.0355ZM151.897 56.3089L151.624 56.309L151.625 60.309L151.898 60.3089L151.897 56.3089ZM149.821 57.4441C149.585 57.9371 149.136 58.5701 148.38 59.3402L151.234 62.1426C152.175 61.1848 152.938 60.1962 153.428 59.1738L149.821 57.4441ZM148.38 59.3402C147.755 59.9767 146.863 60.5798 145.631 61.11L147.212 64.784C148.799 64.1012 150.163 63.2339 151.234 62.1426L148.38 59.3402ZM145.631 61.11C144.538 61.5804 143.104 61.8572 141.262 61.8578L141.264 65.8578C143.482 65.8571 145.487 65.5267 147.212 64.784L145.631 61.11ZM142.08 61.0393C144.459 61.0386 146.61 60.5702 148.438 59.5226L146.448 56.0525C145.367 56.6726 143.942 57.0387 142.079 57.0393L142.08 61.0393ZM148.43 59.5271C150.178 58.5353 151.562 57.2114 152.503 55.5402L149.017 53.5783C148.473 54.544 147.647 55.3723 146.456 56.0481L148.43 59.5271ZM152.494 55.5553C153.417 53.9478 153.895 52.2195 153.895 50.3991L149.895 50.4004C149.895 51.4891 149.617 52.5338 149.026 53.5632L152.494 55.5553ZM153.895 50.3991L153.893 45.49L149.893 45.4913L149.895 50.4004L153.895 50.3991ZM150.356 44.2108C150.431 44.1207 150.492 44.0762 150.504 44.0674C150.518 44.0576 150.505 44.0683 150.453 44.0944C150.344 44.1489 150.146 44.2291 149.829 44.3226L150.958 48.1597C151.413 48.0258 151.852 47.8671 152.243 47.6715C152.613 47.4861 153.068 47.2057 153.43 46.7706L150.356 44.2108ZM149.854 44.3154C149.182 44.5038 148.376 44.6792 147.428 44.8375L148.087 48.7829C149.139 48.6072 150.09 48.4033 150.933 48.1669L149.854 44.3154ZM147.453 44.8336C146.483 44.9831 145.537 45.1174 144.615 45.2368L145.128 49.2037C146.084 49.08 147.062 48.941 148.062 48.7869L147.453 44.8336ZM144.642 45.2334C143.713 45.3403 142.951 45.4329 142.36 45.5109L142.883 49.4765C143.443 49.4026 144.181 49.3129 145.1 49.2071L144.642 45.2334ZM142.362 45.5106C140.851 45.7081 139.419 46.0314 138.072 46.4866L139.353 50.2761C140.429 49.9123 141.604 49.6438 142.881 49.4768L142.362 45.5106ZM138.087 46.4818C136.617 46.966 135.341 47.7321 134.335 48.8205L137.273 51.535C137.752 51.0168 138.414 50.5853 139.338 50.2809L138.087 46.4818ZM134.334 48.8216C133.181 50.0718 132.713 51.6814 132.714 53.406L136.714 53.4047C136.714 52.4021 136.973 51.8599 137.274 51.5338L134.334 48.8216ZM132.714 53.406C132.715 55.8406 133.66 57.9032 135.646 59.2767L137.921 55.9872C137.149 55.4525 136.714 54.6974 136.714 53.4047L132.714 53.406ZM135.666 59.2909C137.47 60.5056 139.653 61.0401 142.08 61.0393L142.079 57.0393C140.233 57.0399 138.885 56.6362 137.901 55.9731L135.666 59.2909ZM187.045 40.5702L189.045 40.5696L189.044 38.5696L187.044 38.5702L187.045 40.5702ZM187.047 45.5702L187.047 47.5702L189.047 47.5696L189.047 45.5696L187.047 45.5702ZM166.683 45.5768L164.683 45.5775L164.684 47.5775L166.684 47.5768L166.683 45.5768ZM166.681 40.5768L166.681 38.5768L164.681 38.5775L164.681 40.5775L166.681 40.5768ZM185.045 40.5709L185.047 45.5709L189.047 45.5696L189.045 40.5696L185.045 40.5709ZM187.046 43.5702L166.682 43.5768L166.684 47.5768L187.047 47.5702L187.046 43.5702ZM168.683 45.5762L168.681 40.5762L164.681 40.5775L164.683 45.5775L168.683 45.5762ZM166.682 42.5768L187.046 42.5702L187.044 38.5702L166.681 38.5768L166.682 42.5768ZM199.126 63.0209L199.127 65.0209L200.539 65.0204L201.011 63.6893L199.126 63.0209ZM193.217 63.0228L191.34 62.334L190.353 65.0237L193.218 65.0228L193.217 63.0228ZM210.293 16.4718L210.292 14.4718L208.896 14.4722L208.415 15.783L210.293 16.4718ZM216.111 16.4699L217.988 15.7799L217.507 14.4694L216.111 14.4699L216.111 16.4699ZM233.217 63.0098L233.218 65.0098L236.083 65.0089L235.094 62.3198L233.217 63.0098ZM227.308 63.0117L225.424 63.6814L225.896 65.0122L227.309 65.0117L227.308 63.0117ZM213.386 23.8344L215.271 23.1647L214.798 21.834L213.386 21.8344L213.386 23.8344ZM213.023 23.8345L213.022 21.8345L211.61 21.835L211.138 23.1661L213.023 23.8345ZM201.302 44.8383L201.302 42.8383L199.302 42.839L199.302 44.839L201.302 44.8383ZM225.12 44.8306L227.12 44.83L227.12 42.83L225.12 42.8306L225.12 44.8306ZM225.122 49.8306L225.123 51.8306L227.123 51.83L227.122 49.83L225.122 49.8306ZM201.304 49.8383L199.304 49.839L199.304 51.839L201.304 51.8383L201.304 49.8383ZM199.126 61.0209L193.217 61.0228L193.218 65.0228L199.127 65.0209L199.126 61.0209ZM195.095 63.7115L212.171 17.1605L208.415 15.783L191.34 62.334L195.095 63.7115ZM210.294 18.4718L216.112 18.4699L216.111 14.4699L210.292 14.4718L210.294 18.4718ZM214.234 17.1599L231.34 63.6998L235.094 62.3198L217.988 15.7799L214.234 17.1599ZM233.217 61.0098L227.307 61.0117L227.309 65.0117L233.218 65.0098L233.217 61.0098ZM229.193 62.342L215.271 23.1647L211.502 24.5041L225.424 63.6814L229.193 62.342ZM213.386 21.8344L213.022 21.8345L213.023 25.8345L213.387 25.8344L213.386 21.8344ZM211.138 23.1661L197.241 62.3524L201.011 63.6893L214.908 24.503L211.138 23.1661ZM201.303 46.8383L225.121 46.8306L225.12 42.8306L201.302 42.8383L201.303 46.8383ZM223.12 44.8313L223.122 49.8313L227.122 49.83L227.12 44.83L223.12 44.8313ZM225.121 47.8306L201.303 47.8383L201.304 51.8383L225.123 51.8306L225.121 47.8306ZM203.304 49.8377L203.302 44.8377L199.302 44.839L199.304 49.839L203.304 49.8377ZM239.74 63.0077L237.74 63.0083L237.741 65.0083L239.741 65.0077L239.74 63.0077ZM239.729 28.0986L239.728 26.0986L237.728 26.0993L237.729 28.0993L239.729 28.0986ZM244.91 28.0969L246.91 28.0963L246.91 26.0963L244.91 26.0969L244.91 28.0969ZM244.912 33.3697L242.912 33.3703L242.913 35.3703L244.913 35.3697L244.912 33.3697ZM245.276 33.3695L245.276 35.3695L246.671 35.3691L247.153 34.0603L245.276 33.3695ZM248.729 29.1639L247.644 27.4839L247.644 27.4839L248.729 29.1639ZM257.183 27.6384L259.183 27.6378L259.182 25.8278L257.381 25.6483L257.183 27.6384ZM257.185 33.093L256.7 35.0334L259.186 35.6539L259.185 33.0923L257.185 33.093ZM255.935 32.8888L255.607 34.8617L255.633 34.8661L255.659 34.8697L255.935 32.8888ZM249.367 33.8L250.302 35.5678L250.31 35.5639L249.367 33.8ZM246.231 36.7101L244.533 35.6544L244.529 35.6602L246.231 36.7101ZM245.104 63.006L245.104 65.006L247.104 65.0053L247.104 63.0053L245.104 63.006ZM241.74 63.0071L241.729 28.098L237.729 28.0993L237.74 63.0083L241.74 63.0071ZM239.729 30.0986L244.911 30.0969L244.91 26.0969L239.728 26.0986L239.729 30.0986ZM242.91 28.0976L242.912 33.3703L246.912 33.369L246.91 28.0963L242.91 28.0976ZM244.913 35.3697L245.276 35.3695L245.275 31.3695L244.911 31.3697L244.913 35.3697ZM247.153 34.0603C247.627 32.772 248.482 31.7044 249.814 30.8439L247.644 27.4839C245.643 28.776 244.196 30.5121 243.399 32.6787L247.153 34.0603ZM249.814 30.8439C251.139 29.9879 252.637 29.549 254.365 29.5484L254.364 25.5484C251.91 25.5492 249.651 26.1873 247.644 27.4839L249.814 30.8439ZM254.365 29.5484C254.736 29.5483 255.21 29.5553 255.791 29.57L255.893 25.5713C255.292 25.5561 254.781 25.5483 254.364 25.5484L254.365 29.5484ZM255.791 29.57C256.37 29.5847 256.757 29.6059 256.985 29.6286L257.381 25.6483C257.003 25.6105 256.496 25.5866 255.893 25.5713L255.791 29.57ZM255.183 27.6391L255.185 33.0936L259.185 33.0923L259.183 27.6378L255.183 27.6391ZM257.669 31.1525C257.363 31.0761 256.832 30.9945 256.21 30.9079L255.659 34.8697C255.977 34.9139 256.227 34.9512 256.414 34.9817C256.507 34.997 256.579 35.0096 256.632 35.0197C256.689 35.0305 256.708 35.0352 256.7 35.0334L257.669 31.1525ZM256.263 30.9159C255.507 30.7902 254.722 30.7301 253.911 30.7304L253.913 34.7304C254.526 34.7302 255.089 34.7757 255.607 34.8617L256.263 30.9159ZM253.911 30.7304C251.927 30.731 250.081 31.1505 248.424 32.0362L250.31 35.5639C251.319 35.0245 252.503 34.7308 253.913 34.7304L253.911 30.7304ZM248.431 32.0323C246.807 32.8919 245.496 34.105 244.533 35.6544L247.93 37.7659C248.512 36.8299 249.291 36.1029 250.302 35.5678L248.431 32.0323ZM244.529 35.6602C243.559 37.2324 243.096 39.0045 243.096 40.9157L247.096 40.9144C247.096 39.6741 247.389 38.6429 247.934 37.7601L244.529 35.6602ZM243.096 40.9157L243.104 63.0066L247.104 63.0053L247.096 40.9144L243.096 40.9157ZM245.103 61.006L239.739 61.0077L239.741 65.0077L245.104 65.006L245.103 61.006ZM280.91 28.0853L282.91 28.0846L282.91 26.0846L280.91 26.0853L280.91 28.0853ZM280.912 32.6307L280.913 34.6307L282.913 34.6301L282.912 32.6301L280.912 32.6307ZM262.821 32.6366L260.821 32.6372L260.822 34.6372L262.822 34.6366L262.821 32.6366ZM262.819 28.0911L262.819 26.0911L260.819 26.0918L260.819 28.0918L262.819 28.0911ZM268.09 19.7258L268.089 17.7258L266.089 17.7264L266.09 19.7264L268.09 19.7258ZM273.453 19.7241L275.453 19.7234L275.452 17.7234L273.452 17.7241L273.453 19.7241ZM274.124 56.4057L272.394 57.4097L272.406 57.4302L272.419 57.4505L274.124 56.4057ZM275.852 57.9051L275.159 59.7813L275.183 59.7903L275.208 59.7986L275.852 57.9051ZM279.557 58.1766L279.873 60.1514L279.911 60.1453L279.949 60.1377L279.557 58.1766ZM280.466 57.9945L282.416 57.5522L281.985 55.6504L280.073 56.0335L280.466 57.9945ZM281.558 62.8123L282.261 64.6848L283.894 64.0716L283.508 62.3701L281.558 62.8123ZM280.035 63.2219L279.625 61.2645L279.603 61.269L279.582 61.2741L280.035 63.2219ZM273.103 62.4742L272.279 64.2965L272.286 64.2997L273.103 62.4742ZM269.511 59.4981L267.877 60.6505L267.881 60.6567L267.886 60.6628L269.511 59.4981ZM278.91 28.0859L278.912 32.6314L282.912 32.6301L282.91 28.0846L278.91 28.0859ZM280.911 30.6307L262.82 30.6366L262.822 34.6366L280.913 34.6307L280.911 30.6307ZM264.821 32.6359L264.819 28.0905L260.819 28.0918L260.821 32.6372L264.821 32.6359ZM262.82 30.0911L280.911 30.0853L280.91 26.0853L262.819 26.0911L262.82 30.0911ZM268.09 21.7258L273.454 21.7241L273.452 17.7241L268.089 17.7258L268.09 21.7258ZM271.453 19.7247L271.464 52.9974L275.464 52.9961L275.453 19.7234L271.453 19.7247ZM271.464 52.9974C271.464 54.6404 271.692 56.1989 272.394 57.4097L275.854 55.4017C275.677 55.0975 275.464 54.3835 275.464 52.9961L271.464 52.9974ZM272.419 57.4505C273.066 58.5073 273.971 59.3427 275.159 59.7813L276.545 56.0289C276.338 55.9528 276.092 55.7886 275.829 55.3608L272.419 57.4505ZM275.208 59.7986C276.137 60.1147 277.106 60.2683 278.103 60.268L278.101 56.268C277.522 56.2682 276.991 56.1799 276.496 56.0116L275.208 59.7986ZM278.103 60.268C278.749 60.2678 279.35 60.2353 279.873 60.1514L279.24 56.2018C279.006 56.2394 278.636 56.2678 278.101 56.268L278.103 60.268ZM279.949 60.1377C280.328 60.0618 280.631 60.0011 280.858 59.9555L280.073 56.0335C279.845 56.079 279.542 56.1397 279.164 56.2156L279.949 60.1377ZM278.515 58.4368L279.608 63.2546L283.508 62.3701L282.416 57.5522L278.515 58.4368ZM280.855 60.9399C280.63 61.0243 280.236 61.1363 279.625 61.2645L280.446 65.1794C281.137 65.0344 281.758 64.8734 282.261 64.6848L280.855 60.9399ZM279.582 61.2741C279.132 61.3787 278.472 61.4497 277.558 61.45L277.559 65.45C278.644 65.4496 279.635 65.3686 280.489 65.1698L279.582 61.2741ZM277.558 61.45C276.339 61.4504 275.132 61.1907 273.92 60.6486L272.286 64.2997C273.985 65.0597 275.747 65.4506 277.559 65.45L277.558 61.45ZM273.927 60.6519C272.821 60.1513 271.896 59.3918 271.137 58.3333L267.886 60.6628C269.037 62.2704 270.507 63.4949 272.279 64.2965L273.927 60.6519ZM271.146 58.3456C270.497 57.4243 270.101 56.1722 270.101 54.4524L266.101 54.4537C266.102 56.7946 266.647 58.9057 267.877 60.6505L271.146 58.3456ZM270.101 54.4524L270.09 19.7251L266.09 19.7264L266.101 54.4537L270.101 54.4524Z" fill="#2F834E"/>
</svg>
