<svg width="51" height="51" viewBox="0 0 51 51" fill="none" xmlns="http://www.w3.org/2000/svg">
<circle cx="25.5" cy="25.5" r="25.5" fill="#C51B29"/>
<path d="M7.70644 35.7451L5.55527 29.5632L7.64407 28.8363C8.12904 28.6676 8.55593 28.6172 8.92473 28.6851C9.29485 28.7503 9.60584 28.9049 9.85769 29.1489C10.1095 29.3929 10.2988 29.697 10.4256 30.0613C10.5523 30.4255 10.5931 30.7824 10.5478 31.1321C10.5045 31.481 10.3598 31.7976 10.1135 32.0818C9.86653 32.364 9.50258 32.5888 9.02163 32.7562L7.52446 33.2772L7.29338 32.6131L8.7664 32.1005C9.09843 31.985 9.34511 31.8348 9.50643 31.6501C9.66775 31.4654 9.75972 31.2597 9.78235 31.033C9.80629 30.8035 9.7752 30.5651 9.68907 30.3175C9.60294 30.07 9.47963 29.8648 9.31914 29.7018C9.16066 29.5381 8.96054 29.4363 8.71878 29.3963C8.47632 29.3544 8.18706 29.3919 7.851 29.5088L6.53494 29.9668L8.45503 35.4846L7.70644 35.7451ZM11.6994 27.4252L13.8506 33.607L13.102 33.8675L10.9508 27.6857L11.6994 27.4252ZM15.1463 33.1561L14.9572 32.6128L16.5586 26.4787L13.19 27.651L12.9589 26.9869L17.221 25.5038L17.41 26.0471L15.8087 32.1812L19.1773 31.0089L19.4084 31.673L15.1463 33.1561ZM20.4588 31.3075L20.2697 30.7642L21.8711 24.6301L18.5025 25.8023L18.2714 25.1382L22.5335 23.6551L22.7226 24.1984L21.1212 30.3325L24.4898 29.1603L24.7209 29.8244L20.4588 31.3075ZM26.2302 29.2992L25.4453 29.5723L25.5641 22.6005L26.3368 22.3316L30.7579 27.7236L29.9731 27.9967L26.3149 23.4357L26.2666 23.4525L26.2302 29.2992ZM25.6796 26.7835L28.843 25.6827L29.0741 26.3468L25.9107 27.4476L25.6796 26.7835ZM31.9743 27.3003L31.1895 27.5734L31.3083 20.6017L32.081 20.3328L36.5021 25.7247L35.7173 25.9978L32.0591 21.4368L32.0108 21.4536L31.9743 27.3003ZM31.4238 24.7847L34.5872 23.6839L34.8183 24.3479L31.6549 25.4487L31.4238 24.7847ZM37.465 25.3897L35.3138 19.2078L37.4026 18.4809C37.8855 18.3129 38.3107 18.2574 38.678 18.3146C39.0446 18.3698 39.3521 18.5143 39.6005 18.7482C39.8488 18.9822 40.0363 19.2813 40.1631 19.6455C40.2898 20.0097 40.3278 20.3586 40.2769 20.6922C40.226 21.0257 40.0746 21.3265 39.8228 21.5947C39.5702 21.8608 39.2045 22.0772 38.7255 22.2438L37.0352 22.832L36.7999 22.1559L38.4661 21.5761C38.7961 21.4612 39.0449 21.3205 39.2126 21.1539C39.3822 20.9866 39.4815 20.7986 39.5104 20.59C39.5407 20.3787 39.5127 20.1493 39.4266 19.9018C39.3405 19.6543 39.2189 19.454 39.0619 19.3011C38.9049 19.1482 38.7073 19.0568 38.469 19.0269C38.2301 18.995 37.9436 19.0372 37.6095 19.1534L36.2935 19.6114L38.2136 25.1292L37.465 25.3897ZM39.4084 21.6001L41.8961 23.8477L41.0268 24.1502L38.5633 21.8942L39.4084 21.6001ZM40.6439 18.0975L40.4128 17.4335L45.0492 15.8201L45.2803 16.4841L43.3364 17.1606L45.2564 22.6784L44.5079 22.9389L42.5878 17.4211L40.6439 18.0975Z" fill="white"/>
</svg>
