<svg width="502" height="77" viewBox="0 0 502 77" fill="none" xmlns="http://www.w3.org/2000/svg">
<path d="M5.63636 62H3.63636V64H5.63636V62ZM5.63636 15.4545V13.4545H3.63636V15.4545H5.63636ZM30.3182 17.4318L29.3296 19.1704L29.3363 19.1742L29.343 19.178L30.3182 17.4318ZM35.5 22.7273L33.7136 23.6266L33.7136 23.6266L35.5 22.7273ZM35.5 37.6591L33.7111 36.7646L33.7063 36.7744L35.5 37.6591ZM30.3636 43.0227L31.3523 44.7613L31.3608 44.7564L30.3636 43.0227ZM10.1818 45H8.18182V47H10.1818V45ZM10.1818 40V38H8.18182V40H10.1818ZM27.2955 38.7045L26.305 36.967L26.305 36.967L27.2955 38.7045ZM30.5909 35.2045L28.7804 34.3547L28.7766 34.3629L30.5909 35.2045ZM30.5909 25.1818L28.7766 26.0235L28.7802 26.0312L28.7838 26.0388L30.5909 25.1818ZM27.2727 21.7273L26.3029 23.4764L26.3096 23.4801L26.3162 23.4837L27.2727 21.7273ZM11.2727 20.4545V18.4545H9.27273V20.4545H11.2727ZM11.2727 62V64H13.2727V62H11.2727ZM7.63636 62V15.4545H3.63636V62H7.63636ZM5.63636 17.4545H21.3636V13.4545H5.63636V17.4545ZM21.3636 17.4545C24.791 17.4545 27.4038 18.0753 29.3296 19.1704L31.3068 15.6932C28.5962 14.1519 25.2393 13.4545 21.3636 13.4545V17.4545ZM29.343 19.178C31.3537 20.3008 32.7852 21.7823 33.7136 23.6266L37.2864 21.828C35.9724 19.2177 33.9493 17.1689 31.2933 15.6856L29.343 19.178ZM33.7136 23.6266C34.6808 25.5479 35.1818 27.72 35.1818 30.1818H39.1818C39.1818 27.1587 38.5616 24.3612 37.2864 21.828L33.7136 23.6266ZM35.1818 30.1818C35.1818 32.6434 34.6808 34.8253 33.7111 36.7647L37.2889 38.5535C38.5616 36.008 39.1818 33.2051 39.1818 30.1818H35.1818ZM33.7063 36.7744C32.7881 38.636 31.366 40.139 29.3665 41.289L31.3608 44.7564C33.9977 43.2398 35.9998 41.1671 37.2937 38.5438L33.7063 36.7744ZM29.375 41.2841C27.447 42.3805 24.8482 43 21.4545 43V47C25.3034 47 28.6439 46.3014 31.3522 44.7613L29.375 41.2841ZM21.4545 43H10.1818V47H21.4545V43ZM12.1818 45V40H8.18182V45H12.1818ZM10.1818 42H21.2727V38H10.1818V42ZM21.2727 42C23.9784 42 26.366 41.5364 28.2859 40.4421L26.305 36.967C25.1946 37.6 23.5671 38 21.2727 38V42ZM28.2859 40.4421C30.1329 39.3893 31.5349 37.9222 32.4052 36.0462L28.7766 34.3629C28.2833 35.4263 27.4883 36.2925 26.305 36.967L28.2859 40.4421ZM32.4014 36.0544C33.2391 34.2696 33.6364 32.2991 33.6364 30.1818H29.6364C29.6364 31.7918 29.3366 33.1698 28.7804 34.3547L32.4014 36.0544ZM33.6364 30.1818C33.6364 28.065 33.2393 26.0988 32.398 24.3248L28.7838 26.0388C29.3365 27.2042 29.6364 28.5714 29.6364 30.1818H33.6364ZM32.4052 24.3401C31.529 22.4514 30.106 20.9928 28.2292 19.9708L26.3162 23.4837C27.5001 24.1284 28.2892 24.9728 28.7766 26.0235L32.4052 24.3401ZM28.2425 19.9781C26.3123 18.9079 23.9098 18.4545 21.1818 18.4545V22.4545C23.5144 22.4545 25.1725 22.8497 26.3029 23.4764L28.2425 19.9781ZM21.1818 18.4545H11.2727V22.4545H21.1818V18.4545ZM9.27273 20.4545V62H13.2727V20.4545H9.27273ZM11.2727 60H5.63636V64H11.2727V60ZM45.5341 62H43.5341V64H45.5341V62ZM45.5341 27.0909V25.0909H43.5341V27.0909H45.5341ZM50.7159 27.0909H52.7159V25.0909H50.7159V27.0909ZM50.7159 32.3636H48.7159V34.3636H50.7159V32.3636ZM51.0795 32.3636V34.3636H52.4741L52.9562 33.055L51.0795 32.3636ZM54.5341 28.1591L53.4495 26.4787L53.4495 26.4787L54.5341 28.1591ZM62.9886 26.6364H64.9886V24.8264L63.1877 24.6463L62.9886 26.6364ZM62.9886 32.0909L62.5036 34.0312L64.9886 34.6525V32.0909H62.9886ZM61.7386 31.8864L61.4098 33.8592L61.436 33.8635L61.4622 33.8672L61.7386 31.8864ZM55.1705 32.7955L56.1053 34.5635L56.1127 34.5596L55.1705 32.7955ZM52.0341 35.7045L50.3358 34.6483L50.3322 34.654L52.0341 35.7045ZM50.8977 62V64H52.8977V62H50.8977ZM47.5341 62V27.0909H43.5341V62H47.5341ZM45.5341 29.0909H50.7159V25.0909H45.5341V29.0909ZM48.7159 27.0909V32.3636H52.7159V27.0909H48.7159ZM50.7159 34.3636H51.0795V30.3636H50.7159V34.3636ZM52.9562 33.055C53.4308 31.7669 54.2862 30.6995 55.6187 29.8395L53.4495 26.4787C51.4486 27.7702 50.001 29.5059 49.2029 31.6722L52.9562 33.055ZM55.6187 29.8395C56.9442 28.9839 58.4425 28.5455 60.1705 28.5455V24.5455C57.7166 24.5455 55.4573 25.1828 53.4495 26.4787L55.6187 29.8395ZM60.1705 28.5455C60.5411 28.5455 61.0151 28.5526 61.5965 28.5675L61.699 24.5688C61.0985 24.5534 60.5876 24.5455 60.1705 24.5455V28.5455ZM61.5965 28.5675C62.1747 28.5823 62.5621 28.6037 62.7896 28.6264L63.1877 24.6463C62.8091 24.6084 62.3026 24.5843 61.699 24.5688L61.5965 28.5675ZM60.9886 26.6364V32.0909H64.9886V26.6364H60.9886ZM63.4737 30.1506C63.1677 30.0741 62.6367 29.9923 62.015 29.9056L61.4622 33.8672C61.78 33.9115 62.03 33.9489 62.2168 33.9794C62.3101 33.9947 62.382 34.0074 62.4352 34.0175C62.4924 34.0283 62.5108 34.033 62.5036 34.0312L63.4737 30.1506ZM62.0674 29.9136C61.3119 29.7877 60.527 29.7273 59.7159 29.7273V33.7273C60.3291 33.7273 60.8927 33.773 61.4098 33.8592L62.0674 29.9136ZM59.7159 29.7273C57.7312 29.7273 55.8855 30.1462 54.2282 31.0313L56.1127 34.5596C57.122 34.0205 58.3067 33.7273 59.7159 33.7273V29.7273ZM54.2356 31.0274C52.6107 31.8865 51.2992 33.0992 50.3358 34.6483L53.7324 36.7608C54.3144 35.825 55.0938 35.0983 56.1053 34.5635L54.2356 31.0274ZM50.3322 34.654C49.3619 36.226 48.8977 37.9978 48.8977 39.9091H52.8977C52.8977 38.6688 53.1912 37.6377 53.736 36.7551L50.3322 34.654ZM48.8977 39.9091V62H52.8977V39.9091H48.8977ZM50.8977 60H45.5341V64H50.8977V60ZM68.3466 62H66.3466V64H68.3466V62ZM68.3466 57.9091L66.7685 56.6804L66.3466 57.2223V57.9091H68.3466ZM88.1648 32.4545L89.7429 33.6832L90.1648 33.1413V32.4545H88.1648ZM88.1648 32.0909H90.1648V30.0909H88.1648V32.0909ZM68.983 32.0909H66.983V34.0909H68.983V32.0909ZM68.983 27.0909V25.0909H66.983V27.0909H68.983ZM95.0739 27.0909H97.0739V25.0909H95.0739V27.0909ZM95.0739 31.3636L96.6642 32.5764L97.0739 32.0392V31.3636H95.0739ZM75.8011 56.6364L74.2108 55.4236L73.8011 55.9608V56.6364H75.8011ZM75.8011 57H73.8011V59H75.8011V57ZM95.7102 57H97.7102V55H95.7102V57ZM95.7102 62V64H97.7102V62H95.7102ZM70.3466 62V57.9091H66.3466V62H70.3466ZM69.9247 59.1378L89.7429 33.6832L86.5867 31.2259L66.7685 56.6804L69.9247 59.1378ZM90.1648 32.4545V32.0909H86.1648V32.4545H90.1648ZM88.1648 30.0909H68.983V34.0909H88.1648V30.0909ZM70.983 32.0909V27.0909H66.983V32.0909H70.983ZM68.983 29.0909H95.0739V25.0909H68.983V29.0909ZM93.0739 27.0909V31.3636H97.0739V27.0909H93.0739ZM93.4835 30.1509L74.2108 55.4236L77.3915 57.8491L96.6642 32.5764L93.4835 30.1509ZM73.8011 56.6364V57H77.8011V56.6364H73.8011ZM75.8011 59H95.7102V55H75.8011V59ZM93.7102 57V62H97.7102V57H93.7102ZM95.7102 60H68.3466V64H95.7102V60ZM104.994 74.8636L105.411 72.9074L105.391 72.9032L105.37 72.8993L104.994 74.8636ZM103.517 74.4545L101.595 73.9002L101.134 75.4992L102.623 76.2434L103.517 74.4545ZM104.881 69.7273L105.376 67.7897L103.497 67.3088L102.959 69.173L104.881 69.7273ZM108.335 70.0909L108.154 68.0991L108.154 68.0991L108.335 70.0909ZM110.994 68.75L109.58 67.3358L109.567 67.3494L109.553 67.3632L110.994 68.75ZM113.153 64.9091L115.031 65.599L115.031 65.5976L113.153 64.9091ZM114.153 62.1818L116.031 62.8703L116.284 62.1807L116.03 61.4913L114.153 62.1818ZM101.244 27.0909V25.0909H98.3775L99.3673 27.7814L101.244 27.0909ZM107.062 27.0909L108.952 26.4363L108.486 25.0909H107.062V27.0909ZM116.699 54.9091L114.809 55.5637L115.275 56.9091H116.699V54.9091ZM117.062 54.9091V56.9091H118.486L118.952 55.5637L117.062 54.9091ZM126.699 27.0909V25.0909H125.275L124.809 26.4363L126.699 27.0909ZM132.517 27.0909L134.392 27.7857L135.391 25.0909H132.517V27.0909ZM117.699 67.0909L115.823 66.3961L115.823 66.3973L117.699 67.0909ZM115.222 71.5682L113.685 70.2878L113.677 70.2975L115.222 71.5682ZM111.79 74.2273L110.981 72.3979L110.974 72.4014L111.79 74.2273ZM107.426 73.0909C106.624 73.0909 105.957 73.0237 105.411 72.9074L104.578 76.8198C105.456 77.0066 106.41 77.0909 107.426 77.0909V73.0909ZM105.37 72.8993C105.047 72.8375 104.802 72.7808 104.625 72.7316C104.432 72.6782 104.381 72.6505 104.411 72.6657L102.623 76.2434C103.167 76.5156 103.905 76.6914 104.618 76.8279L105.37 72.8993ZM105.439 75.0089L106.802 70.2816L102.959 69.173L101.595 73.9002L105.439 75.0089ZM104.385 71.6649C105.839 72.0367 107.227 72.1999 108.516 72.0827L108.154 68.0991C107.444 68.1637 106.529 68.0845 105.376 67.7897L104.385 71.6649ZM108.516 72.0827C110.049 71.9434 111.368 71.2456 112.435 70.1368L109.553 67.3632C109.075 67.8605 108.621 68.0566 108.154 68.0991L108.516 72.0827ZM112.409 70.1642C113.497 69.076 114.339 67.48 115.031 65.599L111.276 64.2192C110.664 65.8837 110.068 66.8482 109.58 67.3358L112.409 70.1642ZM115.031 65.5976L116.031 62.8703L112.276 61.4933L111.276 64.2206L115.031 65.5976ZM116.03 61.4913L103.121 26.4004L99.3673 27.7814L112.276 62.8723L116.03 61.4913ZM101.244 29.0909H107.062V25.0909H101.244V29.0909ZM105.173 27.7456L114.809 55.5637L118.589 54.2544L108.952 26.4363L105.173 27.7456ZM116.699 56.9091H117.062V52.9091H116.699V56.9091ZM118.952 55.5637L128.589 27.7456L124.809 26.4363L115.173 54.2544L118.952 55.5637ZM126.699 29.0909H132.517V25.0909H126.699V29.0909ZM130.642 26.3961L115.823 66.3961L119.574 67.7857L134.392 27.7857L130.642 26.3961ZM115.823 66.3973C115.216 68.038 114.493 69.3183 113.685 70.2878L116.758 72.8486C117.92 71.4544 118.848 69.7499 119.575 67.7845L115.823 66.3973ZM113.677 70.2975C112.873 71.2749 111.974 71.9592 110.981 72.3979L112.598 76.0566C114.211 75.3438 115.601 74.2554 116.766 72.8389L113.677 70.2975ZM110.974 72.4014C109.978 72.8465 108.808 73.0909 107.426 73.0909V77.0909C109.287 77.0909 111.026 76.7596 112.606 76.0531L110.974 72.4014ZM145.756 74.8182L146.429 72.935L146.423 72.9326L146.416 72.9302L145.756 74.8182ZM141.097 72.2273L142.406 70.7153L142.404 70.714L141.097 72.2273ZM138.165 68.8182L137.016 67.1814L135.492 68.251L136.45 69.8472L138.165 68.8182ZM142.438 65.8182L144.028 64.6061L142.863 63.076L141.288 64.1814L142.438 65.8182ZM144.278 68L145.772 66.6696L145.766 66.6628L145.76 66.656L144.278 68ZM147.324 70.1591L148.185 68.3537L148.175 68.3495L147.324 70.1591ZM159.415 69.0455L160.608 70.6502L160.608 70.6502L159.415 69.0455ZM162.165 55.5455H164.165V53.5455H162.165V55.5455ZM161.71 55.5455V53.5455H160.596L160.01 54.4927L161.71 55.5455ZM160.028 57.9091L158.447 56.6847L158.444 56.6884L160.028 57.9091ZM156.938 60.3864L157.88 62.1505L157.887 62.1467L156.938 60.3864ZM143.938 59.4545L142.91 61.1706L142.915 61.1736L143.938 59.4545ZM138.642 53.6364L136.857 54.5393L136.862 54.5477L138.642 53.6364ZM138.597 35.0227L140.404 35.8798L140.406 35.8758L138.597 35.0227ZM143.847 28.8409L144.935 30.5188L144.943 30.5137L143.847 28.8409ZM157.028 27.7727L156.04 29.5116L156.052 29.5183L156.064 29.5247L157.028 27.7727ZM160.119 30.3182L158.516 31.5141L158.527 31.5284L158.538 31.5425L160.119 30.3182ZM161.801 32.6364L160.124 33.7263L160.716 34.6364H161.801V32.6364ZM162.347 32.6364V34.6364H164.347V32.6364H162.347ZM162.347 27.0909V25.0909H160.347V27.0909H162.347ZM167.528 27.0909H169.528V25.0909H167.528V27.0909ZM165.483 70.3182L163.864 69.1434L163.859 69.1508L163.854 69.1582L165.483 70.3182ZM160.028 74.4773L159.311 72.6103L159.304 72.6131L159.296 72.6161L160.028 74.4773ZM157.71 55.1591L156.605 53.4924L156.605 53.4924L157.71 55.1591ZM161.097 50.9091L162.942 51.6805L162.942 51.6805L161.097 50.9091ZM161.119 37.6136L162.98 36.881L162.98 36.881L161.119 37.6136ZM157.756 33.0909L156.572 34.7027L156.572 34.7027L157.756 33.0909ZM146.574 33.1818L145.364 31.5895L145.356 31.5954L146.574 33.1818ZM143.188 37.8182L141.325 37.0905L141.32 37.1032L143.188 37.8182ZM143.21 50.7045L141.357 51.4577L141.361 51.4668L141.365 51.4759L143.21 50.7045ZM146.619 55.0682L145.465 56.7012L145.474 56.7078L145.483 56.7143L146.619 55.0682ZM152.438 73.8182C150.009 73.8182 148.022 73.5046 146.429 72.935L145.082 76.7013C147.217 77.4651 149.684 77.8182 152.438 77.8182V73.8182ZM146.416 72.9302C144.743 72.3456 143.423 71.5963 142.406 70.7153L139.787 73.7393C141.255 75.0098 143.041 75.9877 145.096 76.7061L146.416 72.9302ZM142.404 70.714C141.314 69.7721 140.483 68.7947 139.88 67.7892L136.45 69.8472C137.301 71.2659 138.424 72.5612 139.789 73.7405L142.404 70.714ZM139.314 70.455L143.587 67.455L141.288 64.1814L137.016 67.1814L139.314 70.455ZM140.847 67.0303C141.376 67.7256 142.03 68.4981 142.797 69.344L145.76 66.656C145.042 65.8655 144.468 65.1835 144.028 64.6061L140.847 67.0303ZM142.785 69.3304C143.749 70.4123 145.005 71.2782 146.472 71.9687L148.175 68.3495C147.067 67.8278 146.293 67.2543 145.772 66.6696L142.785 69.3304ZM146.463 71.9644C148.129 72.7588 150.16 73.0909 152.438 73.0909V69.0909C150.503 69.0909 149.124 68.8018 148.185 68.3538L146.463 71.9644ZM152.438 73.0909C155.583 73.0909 158.356 72.3254 160.608 70.6502L158.221 67.4407C156.807 68.4927 154.928 69.0909 152.438 69.0909V73.0909ZM160.608 70.6502C163.085 68.8083 164.165 65.9871 164.165 62.6364H160.165C160.165 65.1038 159.411 66.5554 158.221 67.4407L160.608 70.6502ZM164.165 62.6364V55.5455H160.165V62.6364H164.165ZM162.165 53.5455H161.71V57.5455H162.165V53.5455ZM160.01 54.4927C159.667 55.046 159.153 55.7725 158.447 56.6847L161.61 59.1334C162.358 58.1669 162.965 57.3177 163.411 56.5982L160.01 54.4927ZM158.444 56.6884C157.948 57.3322 157.163 57.9923 155.988 58.6261L157.887 62.1467C159.409 61.3259 160.684 60.3345 161.613 59.1298L158.444 56.6884ZM155.995 58.6222C155.062 59.1209 153.625 59.4545 151.528 59.4545V63.4545C153.978 63.4545 156.147 63.0761 157.88 62.1505L155.995 58.6222ZM151.528 59.4545C149.04 59.4545 146.868 58.8702 144.96 57.7355L142.915 61.1736C145.492 62.7055 148.38 63.4545 151.528 63.4545V59.4545ZM144.965 57.7385C143.091 56.6169 141.573 54.9721 140.422 52.725L136.862 54.5477C138.318 57.3916 140.329 59.6256 142.91 61.1706L144.965 57.7385ZM140.427 52.7334C139.314 50.5341 138.71 47.77 138.71 44.3636H134.71C134.71 48.23 135.394 51.6477 136.857 54.5393L140.427 52.7334ZM138.71 44.3636C138.71 41.0208 139.298 38.2114 140.404 35.8798L136.79 34.1657C135.38 37.1371 134.71 40.555 134.71 44.3636H138.71ZM140.406 35.8758C141.521 33.5099 143.036 31.7503 144.935 30.5188L142.758 27.163C140.172 28.8406 138.187 31.2022 136.788 34.1696L140.406 35.8758ZM144.943 30.5137C146.828 29.2779 149.03 28.6364 151.619 28.6364V24.6364C148.329 24.6364 145.35 25.4645 142.75 27.1682L144.943 30.5137ZM151.619 28.6364C153.701 28.6364 155.119 28.9882 156.04 29.5116L158.016 26.0338C156.271 25.0421 154.083 24.6364 151.619 24.6364V28.6364ZM156.064 29.5247C157.232 30.1682 158.017 30.8449 158.516 31.5141L161.722 29.1223C160.797 27.8823 159.521 26.8621 157.993 26.0207L156.064 29.5247ZM158.538 31.5425C159.25 32.4622 159.773 33.1861 160.124 33.7263L163.478 31.5464C163.041 30.8745 162.443 30.0529 161.701 29.0938L158.538 31.5425ZM161.801 34.6364H162.347V30.6364H161.801V34.6364ZM164.347 32.6364V27.0909H160.347V32.6364H164.347ZM162.347 29.0909H167.528V25.0909H162.347V29.0909ZM165.528 27.0909V63H169.528V27.0909H165.528ZM165.528 63C165.528 65.7013 164.916 67.694 163.864 69.1434L167.102 71.493C168.777 69.1848 169.528 66.2987 169.528 63H165.528ZM163.854 69.1582C162.746 70.7142 161.253 71.8644 159.311 72.6103L160.746 76.3443C163.379 75.3326 165.523 73.7101 167.112 71.4782L163.854 69.1582ZM159.296 72.6161C157.287 73.4063 155.01 73.8182 152.438 73.8182V77.8182C155.441 77.8182 158.224 77.3362 160.76 76.3385L159.296 72.6161ZM152.256 58.6364C154.718 58.6364 156.94 58.0696 158.816 56.8258L156.605 53.4924C155.51 54.2183 154.097 54.6364 152.256 54.6364V58.6364ZM158.816 56.8258C160.67 55.5957 162.036 53.847 162.942 51.6805L159.251 50.1377C158.612 51.6682 157.72 52.7528 156.605 53.4924L158.816 56.8258ZM162.942 51.6805C163.841 49.5287 164.256 47.0409 164.256 44.2727H160.256C160.256 46.6561 159.897 48.5925 159.251 50.1377L162.942 51.6805ZM164.256 44.2727C164.256 41.5595 163.847 39.083 162.98 36.881L159.258 38.3463C159.907 39.9927 160.256 41.9557 160.256 44.2727H164.256ZM162.98 36.881C162.102 34.65 160.765 32.82 158.94 31.4791L156.572 34.7027C157.716 35.5437 158.622 36.7288 159.258 38.3463L162.98 36.881ZM158.94 31.4791C157.052 30.092 154.783 29.4545 152.256 29.4545V33.4545C154.092 33.4545 155.49 33.908 156.572 34.7027L158.94 31.4791ZM152.256 29.4545C149.633 29.4545 147.291 30.125 145.364 31.5895L147.784 34.7741C148.887 33.9356 150.332 33.4545 152.256 33.4545V29.4545ZM145.356 31.5954C143.538 32.991 142.201 34.8468 141.325 37.0905L145.05 38.5459C145.689 36.9108 146.61 35.6756 147.792 34.7683L145.356 31.5954ZM141.32 37.1032C140.479 39.3001 140.074 41.6981 140.074 44.2727H144.074C144.074 42.1201 144.411 40.2151 145.055 38.5332L141.32 37.1032ZM140.074 44.2727C140.074 46.9035 140.485 49.3112 141.357 51.4577L145.063 49.9514C144.42 48.3706 144.074 46.4904 144.074 44.2727H140.074ZM141.365 51.4759C142.269 53.6382 143.631 55.4044 145.465 56.7012L147.774 53.4352C146.608 52.6108 145.697 51.4679 145.055 49.9332L141.365 51.4759ZM145.483 56.7143C147.4 58.0364 149.697 58.6364 152.256 58.6364V54.6364C150.329 54.6364 148.869 54.1909 147.755 53.422L145.483 56.7143ZM183.233 60.4773L182.161 62.1659L182.166 62.169L183.233 60.4773ZM177.688 54.1818L175.891 55.0601L175.895 55.0682L177.688 54.1818ZM177.688 35.2045L175.893 34.3222L175.889 34.3303L177.688 35.2045ZM183.233 28.8864L182.166 27.1946L182.161 27.1977L183.233 28.8864ZM199.801 28.8864L198.729 30.575L198.734 30.5781L199.801 28.8864ZM205.347 35.2045L203.548 36.0788L203.552 36.0869L205.347 35.2045ZM205.347 54.1818L203.554 53.2954L203.55 53.3036L205.347 54.1818ZM199.801 60.4773L198.734 58.7855L198.729 58.7886L199.801 60.4773ZM197.438 56.0682L196.194 54.502L196.194 54.502L197.438 56.0682ZM200.869 51.2273L202.744 51.9233L202.744 51.9233L200.869 51.2273ZM200.869 38.2045L202.746 37.5131L202.746 37.5131L200.869 38.2045ZM197.438 33.3182L198.691 31.7594L198.691 31.7594L197.438 33.3182ZM185.619 33.3182L184.366 31.7594L184.366 31.7594L185.619 33.3182ZM182.188 38.2045L180.311 37.5131L180.311 37.5131L182.188 38.2045ZM182.188 51.2273L180.313 51.9233L180.313 51.9233L182.188 51.2273ZM185.619 56.0682L186.863 54.502L186.863 54.502L185.619 56.0682ZM191.528 60.7273C188.708 60.7273 186.322 60.0605 184.3 58.7855L182.166 62.169C184.902 63.894 188.046 64.7273 191.528 64.7273V60.7273ZM184.305 58.7886C182.273 57.4996 180.664 55.6895 179.48 53.2955L175.895 55.0682C177.378 58.0681 179.465 60.4549 182.161 62.1659L184.305 58.7886ZM179.484 53.3036C178.324 50.9297 177.71 48.0895 177.71 44.7273H173.71C173.71 48.5772 174.415 52.04 175.891 55.0601L179.484 53.3036ZM177.71 44.7273C177.71 41.3323 178.325 38.4681 179.486 36.0788L175.889 34.3303C174.414 37.3652 173.71 40.8495 173.71 44.7273H177.71ZM179.482 36.0869C180.667 33.6777 182.276 31.8622 184.305 30.575L182.161 27.1977C179.462 28.9105 177.375 31.3071 175.893 34.3222L179.482 36.0869ZM184.3 30.5781C186.322 29.3031 188.708 28.6364 191.528 28.6364V24.6364C188.046 24.6364 184.902 25.4696 182.166 27.1946L184.3 30.5781ZM191.528 28.6364C194.35 28.6364 196.725 29.3032 198.729 30.575L200.873 27.1977C198.15 25.4695 195.01 24.6364 191.528 24.6364V28.6364ZM198.734 30.5781C200.775 31.8647 202.38 33.6769 203.548 36.0788L207.145 34.3303C205.676 31.308 203.585 28.908 200.868 27.1946L198.734 30.5781ZM203.552 36.0869C204.725 38.4742 205.347 41.3354 205.347 44.7273H209.347C209.347 40.8464 208.634 37.3591 207.141 34.3222L203.552 36.0869ZM205.347 44.7273C205.347 48.0863 204.726 50.9236 203.554 53.2955L207.139 55.0682C208.634 52.0461 209.347 48.5804 209.347 44.7273H205.347ZM203.55 53.3036C202.383 55.6903 200.778 57.4971 198.734 58.7855L200.868 62.169C203.582 60.4574 205.674 58.0673 207.143 55.0601L203.55 53.3036ZM198.729 58.7886C196.725 60.0604 194.35 60.7273 191.528 60.7273V64.7273C195.01 64.7273 198.15 63.8941 200.873 62.1659L198.729 58.7886ZM191.528 59.9091C194.275 59.9091 196.711 59.1987 198.681 57.6344L196.194 54.502C195.073 55.3922 193.57 55.9091 191.528 55.9091V59.9091ZM198.681 57.6344C200.536 56.1618 201.886 54.2368 202.744 51.9233L198.994 50.5313C198.368 52.2178 197.43 53.52 196.194 54.502L198.681 57.6344ZM202.744 51.9233C203.577 49.6806 203.983 47.2759 203.983 44.7273H199.983C199.983 46.8453 199.647 48.774 198.994 50.5313L202.744 51.9233ZM203.983 44.7273C203.983 42.1784 203.577 39.7681 202.746 37.5131L198.993 38.896C199.647 40.6713 199.983 42.6094 199.983 44.7273H203.983ZM202.746 37.5131C201.889 35.1869 200.542 33.2479 198.691 31.7594L196.184 34.8769C197.424 35.8734 198.365 37.1919 198.993 38.896L202.746 37.5131ZM198.691 31.7594C196.721 30.1756 194.28 29.4545 191.528 29.4545V33.4545C193.564 33.4545 195.064 33.9759 196.184 34.8769L198.691 31.7594ZM191.528 29.4545C188.777 29.4545 186.336 30.1756 184.366 31.7594L186.872 34.8769C187.993 33.9759 189.492 33.4545 191.528 33.4545V29.4545ZM184.366 31.7594C182.515 33.2479 181.168 35.1869 180.311 37.5131L184.064 38.896C184.692 37.1919 185.633 35.8734 186.872 34.8769L184.366 31.7594ZM180.311 37.5131C179.48 39.7681 179.074 42.1784 179.074 44.7273H183.074C183.074 42.6094 183.41 40.6713 184.064 38.896L180.311 37.5131ZM179.074 44.7273C179.074 47.2759 179.48 49.6806 180.313 51.9233L184.062 50.5313C183.41 48.774 183.074 46.8453 183.074 44.7273H179.074ZM180.313 51.9233C181.171 54.2368 182.521 56.1618 184.376 57.6344L186.863 54.502C185.627 53.52 184.689 52.2178 184.062 50.5313L180.313 51.9233ZM184.376 57.6344C186.345 59.1987 188.782 59.9091 191.528 59.9091V55.9091C189.487 55.9091 187.984 55.3922 186.863 54.502L184.376 57.6344ZM230.716 27.0909H232.716V25.0909H230.716V27.0909ZM230.716 31.6364V33.6364H232.716V31.6364H230.716ZM212.625 31.6364H210.625V33.6364H212.625V31.6364ZM212.625 27.0909V25.0909H210.625V27.0909H212.625ZM217.898 18.7273V16.7273H215.898V18.7273H217.898ZM223.261 18.7273H225.261V16.7273H223.261V18.7273ZM223.92 55.4091L222.19 56.4125L222.202 56.4331L222.215 56.4534L223.92 55.4091ZM225.648 56.9091L224.954 58.7851L224.979 58.7941L225.003 58.8024L225.648 56.9091ZM229.352 57.1818L229.668 59.1567L229.707 59.1506L229.745 59.143L229.352 57.1818ZM230.261 57L232.212 56.5583L231.781 54.6564L229.869 55.0388L230.261 57ZM231.352 61.8182L232.055 63.6908L233.688 63.0782L233.303 61.3765L231.352 61.8182ZM229.83 62.2273L229.42 60.2697L229.398 60.2742L229.377 60.2793L229.83 62.2273ZM222.898 61.4773L222.073 63.2993L222.08 63.3025L222.898 61.4773ZM219.307 58.5L217.672 59.6519L217.676 59.6581L217.681 59.6642L219.307 58.5ZM228.716 27.0909V31.6364H232.716V27.0909H228.716ZM230.716 29.6364H212.625V33.6364H230.716V29.6364ZM214.625 31.6364V27.0909H210.625V31.6364H214.625ZM212.625 29.0909H230.716V25.0909H212.625V29.0909ZM217.898 20.7273H223.261V16.7273H217.898V20.7273ZM221.261 18.7273V52H225.261V18.7273H221.261ZM221.261 52C221.261 53.643 221.488 55.2016 222.19 56.4125L225.651 54.4057C225.474 54.1014 225.261 53.3873 225.261 52H221.261ZM222.215 56.4534C222.862 57.5104 223.767 58.3461 224.954 58.7851L226.341 55.0331C226.135 54.9569 225.888 54.7927 225.626 54.3648L222.215 56.4534ZM225.003 58.8024C225.933 59.1188 226.901 59.2727 227.898 59.2727V55.2727C227.319 55.2727 226.787 55.1843 226.292 55.0158L225.003 58.8024ZM227.898 59.2727C228.544 59.2727 229.145 59.2404 229.668 59.1567L229.036 55.2069C228.802 55.2444 228.433 55.2727 227.898 55.2727V59.2727ZM229.745 59.143C230.123 59.0672 230.426 59.0066 230.654 58.9612L229.869 55.0388C229.642 55.0843 229.339 55.1449 228.96 55.2207L229.745 59.143ZM228.311 57.4417L229.402 62.2598L233.303 61.3765L232.212 56.5583L228.311 57.4417ZM230.65 59.9455C230.425 60.0298 230.031 60.1417 229.42 60.2697L230.239 64.1849C230.931 64.0401 231.552 63.8793 232.055 63.6908L230.65 59.9455ZM229.377 60.2793C228.927 60.3838 228.267 60.4545 227.352 60.4545V64.4545C228.438 64.4545 229.429 64.3738 230.283 64.1753L229.377 60.2793ZM227.352 60.4545C226.133 60.4545 224.926 60.1944 223.715 59.652L222.08 63.3025C223.778 64.0631 225.541 64.4545 227.352 64.4545V60.4545ZM223.722 59.6552C222.616 59.1543 221.691 58.3945 220.933 57.3358L217.681 59.6642C218.832 61.2722 220.301 62.4972 222.073 63.2993L223.722 59.6552ZM220.942 57.3481C220.293 56.4266 219.898 55.1743 219.898 53.4545H215.898C215.898 55.7954 216.442 57.9067 217.672 59.6519L220.942 57.3481ZM219.898 53.4545V18.7273H215.898V53.4545H219.898ZM244.295 60.4773L243.224 62.1659L243.229 62.169L244.295 60.4773ZM238.75 54.1818L236.953 55.0601L236.957 55.0682L238.75 54.1818ZM238.75 35.2045L236.955 34.3222L236.951 34.3303L238.75 35.2045ZM244.295 28.8864L243.229 27.1946L243.224 27.1977L244.295 28.8864ZM260.864 28.8864L259.792 30.575L259.797 30.5781L260.864 28.8864ZM266.409 35.2045L264.61 36.0788L264.614 36.0869L266.409 35.2045ZM266.409 54.1818L264.616 53.2954L264.612 53.3036L266.409 54.1818ZM260.864 60.4773L259.797 58.7855L259.792 58.7886L260.864 60.4773ZM258.5 56.0682L257.256 54.502L257.256 54.502L258.5 56.0682ZM261.932 51.2273L263.807 51.9233L263.807 51.9233L261.932 51.2273ZM261.932 38.2045L263.809 37.5131L263.809 37.5131L261.932 38.2045ZM258.5 33.3182L259.753 31.7594L259.753 31.7594L258.5 33.3182ZM246.682 33.3182L245.429 31.7594L245.429 31.7594L246.682 33.3182ZM243.25 38.2045L241.373 37.5131L241.373 37.5131L243.25 38.2045ZM243.25 51.2273L241.375 51.9233L241.375 51.9233L243.25 51.2273ZM246.682 56.0682L247.926 54.502L247.926 54.502L246.682 56.0682ZM252.591 60.7273C249.77 60.7273 247.384 60.0605 245.362 58.7855L243.229 62.169C245.964 63.894 249.109 64.7273 252.591 64.7273V60.7273ZM245.367 58.7886C243.336 57.4996 241.726 55.6895 240.543 53.2955L236.957 55.0682C238.44 58.0681 240.528 60.4549 243.224 62.1659L245.367 58.7886ZM240.547 53.3036C239.387 50.9297 238.773 48.0895 238.773 44.7273H234.773C234.773 48.5772 235.477 52.04 236.953 55.0601L240.547 53.3036ZM238.773 44.7273C238.773 41.3323 239.388 38.4681 240.549 36.0788L236.951 34.3303C235.476 37.3652 234.773 40.8495 234.773 44.7273H238.773ZM240.545 36.0869C241.729 33.6777 243.339 31.8622 245.367 30.575L243.224 27.1977C240.525 28.9105 238.437 31.3071 236.955 34.3222L240.545 36.0869ZM245.362 30.5781C247.384 29.3031 249.77 28.6364 252.591 28.6364V24.6364C249.109 24.6364 245.964 25.4696 243.229 27.1946L245.362 30.5781ZM252.591 28.6364C255.412 28.6364 257.788 29.3032 259.792 30.575L261.935 27.1977C259.212 25.4695 256.073 24.6364 252.591 24.6364V28.6364ZM259.797 30.5781C261.837 31.8647 263.443 33.6769 264.61 36.0788L268.208 34.3303C266.739 31.308 264.648 28.908 261.93 27.1946L259.797 30.5781ZM264.614 36.0869C265.788 38.4742 266.409 41.3354 266.409 44.7273H270.409C270.409 40.8464 269.697 37.3591 268.204 34.3222L264.614 36.0869ZM266.409 44.7273C266.409 48.0863 265.789 50.9236 264.616 53.2955L268.202 55.0682C269.696 52.0461 270.409 48.5804 270.409 44.7273H266.409ZM264.612 53.3036C263.446 55.6903 261.84 57.4971 259.797 58.7855L261.93 62.169C264.645 60.4574 266.736 58.0673 268.206 55.0601L264.612 53.3036ZM259.792 58.7886C257.788 60.0604 255.412 60.7273 252.591 60.7273V64.7273C256.073 64.7273 259.212 63.8941 261.935 62.1659L259.792 58.7886ZM252.591 59.9091C255.337 59.9091 257.774 59.1987 259.744 57.6344L257.256 54.502C256.135 55.3922 254.633 55.9091 252.591 55.9091V59.9091ZM259.744 57.6344C261.598 56.1618 262.948 54.2368 263.807 51.9233L260.057 50.5313C259.431 52.2178 258.493 53.52 257.256 54.502L259.744 57.6344ZM263.807 51.9233C264.639 49.6806 265.045 47.2759 265.045 44.7273H261.045C261.045 46.8453 260.709 48.774 260.057 50.5313L263.807 51.9233ZM265.045 44.7273C265.045 42.1784 264.639 39.7681 263.809 37.5131L260.055 38.896C260.709 40.6713 261.045 42.6094 261.045 44.7273H265.045ZM263.809 37.5131C262.951 35.1869 261.605 33.2479 259.753 31.7594L257.247 34.8769C258.486 35.8734 259.427 37.1919 260.055 38.896L263.809 37.5131ZM259.753 31.7594C257.783 30.1756 255.343 29.4545 252.591 29.4545V33.4545C254.627 33.4545 256.126 33.9759 257.247 34.8769L259.753 31.7594ZM252.591 29.4545C249.839 29.4545 247.399 30.1756 245.429 31.7594L247.935 34.8769C249.056 33.9759 250.555 33.4545 252.591 33.4545V29.4545ZM245.429 31.7594C243.577 33.2479 242.23 35.1869 241.373 37.5131L245.127 38.896C245.755 37.1919 246.695 35.8734 247.935 34.8769L245.429 31.7594ZM241.373 37.5131C240.543 39.7681 240.136 42.1784 240.136 44.7273H244.136C244.136 42.6094 244.473 40.6713 245.127 38.896L241.373 37.5131ZM240.136 44.7273C240.136 47.2759 240.542 49.6806 241.375 51.9233L245.125 50.5313C244.473 48.774 244.136 46.8453 244.136 44.7273H240.136ZM241.375 51.9233C242.234 54.2368 243.584 56.1618 245.438 57.6344L247.926 54.502C246.689 53.52 245.751 52.2178 245.125 50.5313L241.375 51.9233ZM245.438 57.6344C247.408 59.1987 249.845 59.9091 252.591 59.9091V55.9091C250.549 55.9091 249.047 55.3922 247.926 54.502L245.438 57.6344ZM283.318 62L281.405 62.5829L281.837 64H283.318V62ZM272.682 27.0909V25.0909H269.982L270.769 27.6738L272.682 27.0909ZM278.318 27.0909L280.243 26.5475L279.832 25.0909H278.318V27.0909ZM285.864 53.8182L283.939 54.3616L284.35 55.8182H285.864V53.8182ZM286.227 53.8182V55.8182H287.746L288.154 54.3555L286.227 53.8182ZM293.682 27.0909V25.0909H292.163L291.755 26.5536L293.682 27.0909ZM299.409 27.0909L301.337 26.558L300.931 25.0909H299.409V27.0909ZM306.773 53.7273L304.845 54.2602L305.251 55.7273H306.773V53.7273ZM307.136 53.7273V55.7273H308.649L309.061 54.2724L307.136 53.7273ZM314.682 27.0909V25.0909H313.17L312.758 26.5458L314.682 27.0909ZM320.318 27.0909L322.231 27.6738L323.018 25.0909H320.318V27.0909ZM309.682 62V64H311.163L311.595 62.5829L309.682 62ZM304.409 62L302.486 62.5477L302.899 64H304.409V62ZM296.773 35.1818L298.696 34.6341L298.283 33.1818H296.773V35.1818ZM296.227 35.1818V33.1818H294.717L294.304 34.6341L296.227 35.1818ZM288.591 62V64H290.101L290.514 62.5477L288.591 62ZM285.231 61.4171L274.595 26.508L270.769 27.6738L281.405 62.5829L285.231 61.4171ZM272.682 29.0909H278.318V25.0909H272.682V29.0909ZM276.393 27.6343L283.939 54.3616L287.788 53.2748L280.243 26.5475L276.393 27.6343ZM285.864 55.8182H286.227V51.8182H285.864V55.8182ZM288.154 54.3555L295.608 27.6282L291.755 26.5536L284.301 53.2809L288.154 54.3555ZM293.682 29.0909H299.409V25.0909H293.682V29.0909ZM297.481 27.6238L304.845 54.2602L308.7 53.1944L301.337 26.558L297.481 27.6238ZM306.773 55.7273H307.136V51.7273H306.773V55.7273ZM309.061 54.2724L316.606 27.636L312.758 26.5458L305.212 53.1822L309.061 54.2724ZM314.682 29.0909H320.318V25.0909H314.682V29.0909ZM318.405 26.508L307.769 61.4171L311.595 62.5829L322.231 27.6738L318.405 26.508ZM309.682 60H304.409V64H309.682V60ZM306.333 61.4523L298.696 34.6341L294.849 35.7295L302.486 62.5477L306.333 61.4523ZM296.773 33.1818H296.227V37.1818H296.773V33.1818ZM294.304 34.6341L286.667 61.4523L290.514 62.5477L298.151 35.7295L294.304 34.6341ZM288.591 60H283.318V64H288.591V60ZM331.659 61.5682L330.807 63.3779L330.82 63.3837L331.659 61.5682ZM327.364 57.9091L325.695 59.0112L325.7 59.0185L327.364 57.9091ZM326.955 47.2273L328.644 48.2984L328.649 48.2891L326.955 47.2273ZM334.477 42.6818L334.905 44.6355L334.919 44.6324L334.477 42.6818ZM339.318 41.8182L339.063 39.8345L339.059 39.8351L339.318 41.8182ZM344.477 41.2045L344.683 43.1939L344.693 43.1929L344.703 43.1918L344.477 41.2045ZM347.386 40.4545L346.408 38.7103L346.399 38.7154L346.389 38.7207L347.386 40.4545ZM346.477 33.2273L345.046 34.6239L345.054 34.6328L346.477 33.2273ZM334.932 33.0455L336.153 34.6295L336.153 34.6295L334.932 33.0455ZM331.864 36.6364L331.191 38.5198L332.909 39.1335L333.678 37.4786L331.864 36.6364ZM326.773 34.8182L324.934 34.0303L324.096 35.986L326.1 36.7017L326.773 34.8182ZM330.409 29.8636L331.639 31.4406L331.641 31.439L330.409 29.8636ZM335.409 27.3636L335.913 29.2991L335.924 29.2961L335.409 27.3636ZM344.636 27.0455L344.268 29.0112L344.279 29.0134L344.291 29.0154L344.636 27.0455ZM348.886 28.6591L347.857 30.3741L347.866 30.3791L348.886 28.6591ZM352.318 32.3636L350.566 33.3281L350.566 33.3281L352.318 32.3636ZM353.682 62V64H355.682V62H353.682ZM348.318 62H346.318V64H348.318V62ZM348.318 57.2727H350.318V55.2727H348.318V57.2727ZM348.045 57.2727V55.2727H346.787L346.242 56.4073L348.045 57.2727ZM346.227 59.7045L347.654 61.1062L347.654 61.1062L346.227 59.7045ZM342.841 61.9091L342.051 60.0718L342.051 60.0718L342.841 61.9091ZM343.864 56.75L342.877 55.0102L342.869 55.0146L343.864 56.75ZM347.182 53.5227L345.448 52.5262L345.443 52.5337L345.439 52.5413L347.182 53.5227ZM348.318 44.4545H350.318V38.9304L346.782 43.1742L348.318 44.4545ZM346.818 45.2045L347.357 47.1305L347.37 47.127L347.383 47.1233L346.818 45.2045ZM344.182 45.7727L344.486 47.7495L344.498 47.7476L344.511 47.7455L344.182 45.7727ZM341.295 46.1818L341.523 48.1688L341.537 48.1672L341.551 48.1654L341.295 46.1818ZM339.045 46.4545L339.304 48.4377L339.306 48.4375L339.045 46.4545ZM335.136 47.3409L335.762 49.2407L335.769 49.2383L335.776 49.2359L335.136 47.3409ZM332.227 49.1364L330.759 47.7787L330.758 47.7798L332.227 49.1364ZM333.205 56.5909L332.066 58.2353L332.076 58.2424L332.087 58.2494L333.205 56.5909ZM337.682 60.8182C335.726 60.8182 334.01 60.4513 332.498 59.7527L330.82 63.3837C332.915 64.3517 335.213 64.8182 337.682 64.8182V60.8182ZM332.511 59.7585C331.023 59.0583 329.878 58.0745 329.028 56.7997L325.7 59.0185C326.971 60.9255 328.689 62.3811 330.807 63.3778L332.511 59.7585ZM329.033 56.807C328.225 55.5834 327.773 54.044 327.773 52.0909H323.773C323.773 54.6833 324.382 57.0227 325.695 59.0112L329.033 56.807ZM327.773 52.0909C327.773 50.3382 328.12 49.1247 328.644 48.2984L325.266 46.1562C324.214 47.8147 323.773 49.8437 323.773 52.0909H327.773ZM328.649 48.2891C329.252 47.3275 330.047 46.5818 331.064 46.0324L329.163 42.5131C327.544 43.3879 326.233 44.6119 325.26 46.1654L328.649 48.2891ZM331.064 46.0324C332.205 45.4164 333.481 44.9475 334.905 44.6355L334.049 40.7281C332.292 41.1131 330.659 41.7048 329.163 42.5131L331.064 46.0324ZM334.919 44.6324C336.465 44.2823 338.018 44.0053 339.578 43.8013L339.059 39.8351C337.376 40.0553 335.701 40.354 334.036 40.7312L334.919 44.6324ZM339.573 43.8019C341.687 43.5301 343.388 43.3279 344.683 43.1939L344.271 39.2152C342.93 39.3539 341.192 39.5608 339.063 39.8345L339.573 43.8019ZM344.703 43.1918C346.104 43.0325 347.411 42.7476 348.383 42.1884L346.389 38.7207C346.15 38.8584 345.517 39.0735 344.251 39.2173L344.703 43.1918ZM348.365 42.1988C349.761 41.4156 350.318 40.0415 350.318 38.6364H346.318C346.318 38.8338 346.282 38.8712 346.305 38.8265C346.317 38.8036 346.337 38.7748 346.363 38.7478C346.375 38.7353 346.386 38.7258 346.395 38.7191C346.404 38.7126 346.409 38.7099 346.408 38.7103L348.365 42.1988ZM350.318 38.6364V38.4545H346.318V38.6364H350.318ZM350.318 38.4545C350.318 35.8421 349.594 33.5366 347.9 31.8218L345.054 34.6328C345.815 35.4028 346.318 36.5821 346.318 38.4545H350.318ZM347.909 31.8306C346.185 30.0637 343.732 29.3636 340.955 29.3636V33.3636C343.116 33.3636 344.345 33.906 345.046 34.6239L347.909 31.8306ZM340.955 29.3636C338.123 29.3636 335.63 29.9821 333.711 31.4614L336.153 34.6295C337.143 33.8664 338.665 33.3636 340.955 33.3636V29.3636ZM333.711 31.4614C332.078 32.7203 330.811 34.1542 330.05 35.7941L333.678 37.4786C334.098 36.5731 334.877 35.613 336.153 34.6295L333.711 31.4614ZM332.536 34.7529L327.445 32.9347L326.1 36.7017L331.191 38.5198L332.536 34.7529ZM328.611 35.606C329.414 33.7328 330.439 32.377 331.639 31.4406L329.179 28.2866C327.349 29.7139 325.95 31.6611 324.934 34.0303L328.611 35.606ZM331.641 31.439C332.966 30.4032 334.386 29.6968 335.913 29.299L334.905 25.4282C332.826 25.9698 330.913 26.9301 329.177 28.2883L331.641 31.439ZM335.924 29.2961C337.586 28.8529 339.201 28.6364 340.773 28.6364V24.6364C338.829 24.6364 336.868 24.9046 334.894 25.4312L335.924 29.2961ZM340.773 28.6364C341.738 28.6364 342.899 28.7545 344.268 29.0112L345.005 25.0797C343.465 24.791 342.05 24.6364 340.773 24.6364V28.6364ZM344.291 29.0154C345.504 29.2279 346.69 29.6737 347.857 30.3741L349.915 26.9441C348.355 26.0081 346.708 25.3781 344.982 25.0755L344.291 29.0154ZM347.866 30.3791C348.887 30.9854 349.799 31.9337 350.566 33.3281L354.07 31.3992C353.02 29.4906 351.643 27.9692 349.907 26.9391L347.866 30.3791ZM350.566 33.3281C351.254 34.5774 351.682 36.417 351.682 39H355.682C355.682 36.0375 355.201 33.4529 354.07 31.3992L350.566 33.3281ZM351.682 39V62H355.682V39H351.682ZM353.682 60H348.318V64H353.682V60ZM350.318 62V57.2727H346.318V62H350.318ZM348.318 55.2727H348.045V59.2727H348.318V55.2727ZM346.242 56.4073C346.006 56.9002 345.557 57.5331 344.801 58.3029L347.654 61.1062C348.595 60.1487 349.358 59.1604 349.849 58.1382L346.242 56.4073ZM344.801 58.3029C344.175 58.9392 343.283 59.542 342.051 60.0718L343.631 63.7464C345.217 63.0641 346.582 62.1972 347.654 61.1062L344.801 58.3029ZM342.051 60.0718C340.958 60.5418 339.524 60.8182 337.682 60.8182V64.8182C339.9 64.8182 341.906 64.4885 343.631 63.7464L342.051 60.0718ZM338.5 60C340.879 60 343.03 59.5324 344.858 58.4854L342.869 55.0146C341.788 55.6343 340.363 56 338.5 56V60ZM344.85 58.4898C346.598 57.4986 347.983 56.1751 348.924 54.5042L345.439 52.5413C344.895 53.5067 344.068 54.3347 342.877 55.0102L344.85 58.4898ZM348.916 54.5193C349.839 52.9122 350.318 51.184 350.318 49.3636H346.318C346.318 50.4523 346.039 51.4969 345.448 52.5262L348.916 54.5193ZM350.318 49.3636V44.4545H346.318V49.3636H350.318ZM346.782 43.1742C346.857 43.0841 346.917 43.0396 346.929 43.0308C346.943 43.021 346.93 43.0317 346.878 43.0577C346.769 43.1122 346.572 43.1924 346.254 43.2858L347.383 47.1233C347.838 46.9895 348.276 46.8309 348.667 46.6354C349.038 46.4502 349.492 46.17 349.855 45.7349L346.782 43.1742ZM346.279 43.2786C345.607 43.4668 344.801 43.6419 343.853 43.7999L344.511 47.7455C345.562 47.5702 346.514 47.3666 347.357 47.1305L346.279 43.2786ZM343.878 43.796C342.908 43.9452 341.962 44.0792 341.04 44.1983L341.551 48.1654C342.508 48.042 343.486 47.9033 344.486 47.7495L343.878 43.796ZM341.067 44.1949C340.138 44.3015 339.376 44.3938 338.785 44.4716L339.306 48.4375C339.867 48.3637 340.605 48.2742 341.523 48.1688L341.067 44.1949ZM338.787 44.4713C337.276 44.6684 335.844 44.9912 334.497 45.4459L335.776 49.2359C336.853 48.8724 338.027 48.6043 339.304 48.4377L338.787 44.4713ZM334.511 45.4412C333.041 45.9249 331.765 46.6906 330.759 47.7787L333.696 50.4941C334.175 49.9761 334.838 49.5448 335.762 49.2407L334.511 45.4412ZM330.758 47.7798C329.604 49.0296 329.136 50.639 329.136 52.3636H333.136C333.136 51.361 333.396 50.8189 333.697 50.4929L330.758 47.7798ZM329.136 52.3636C329.136 54.7982 330.081 56.8611 332.066 58.2353L334.343 54.9465C333.57 54.4116 333.136 53.6563 333.136 52.3636H329.136ZM332.087 58.2494C333.89 59.4648 336.073 60 338.5 60V56C336.654 56 335.307 55.5958 334.322 54.9324L332.087 58.2494ZM368.835 62V64H370.835V62H368.835ZM363.472 62H361.472V64H363.472V62ZM363.472 27.0909V25.0909H361.472V27.0909H363.472ZM368.653 27.0909H370.653V25.0909H368.653V27.0909ZM368.653 32.5455H366.653V34.5455H368.653V32.5455ZM369.108 32.5455V34.5455H370.388L370.924 33.3836L369.108 32.5455ZM372.835 28.2727L373.92 29.9531L373.931 29.9461L372.835 28.2727ZM385.494 28.0909L384.534 29.8456L384.546 29.8518L385.494 28.0909ZM389.631 32.4545L387.845 33.3545L387.847 33.3601L389.631 32.4545ZM391.108 62V64H393.108V62H391.108ZM385.744 62H383.744V64H385.744V62ZM383.608 33.7727L382.137 35.1281L382.144 35.1353L383.608 33.7727ZM373.153 32.5682L372.189 30.8161L372.18 30.8208L373.153 32.5682ZM369.994 35.8182L368.236 34.8644L368.236 34.8644L369.994 35.8182ZM366.835 41V62H370.835V41H366.835ZM368.835 60H363.472V64H368.835V60ZM365.472 62V27.0909H361.472V62H365.472ZM363.472 29.0909H368.653V25.0909H363.472V29.0909ZM366.653 27.0909V32.5455H370.653V27.0909H366.653ZM368.653 34.5455H369.108V30.5455H368.653V34.5455ZM370.924 33.3836C371.58 31.9611 372.566 30.8266 373.92 29.9531L371.751 26.5924C369.771 27.8703 368.272 29.5844 367.292 31.7073L370.924 33.3836ZM373.931 29.9461C375.182 29.1271 376.919 28.6364 379.29 28.6364V24.6364C376.388 24.6364 373.822 25.2365 371.74 26.5993L373.931 29.9461ZM379.29 28.6364C381.375 28.6364 383.102 29.0622 384.535 29.8456L386.454 26.3363C384.341 25.1802 381.932 24.6364 379.29 24.6364V28.6364ZM384.546 29.8518C385.926 30.595 387.027 31.7326 387.845 33.3545L391.417 31.5546C390.264 29.2674 388.608 27.4959 386.443 26.33L384.546 29.8518ZM387.847 33.3601C388.647 34.9356 389.108 37.0541 389.108 39.8182H393.108C393.108 36.6429 392.584 33.8523 391.414 31.549L387.847 33.3601ZM389.108 39.8182V62H393.108V39.8182H389.108ZM391.108 60H385.744V64H391.108V60ZM387.744 62V40.1818H383.744V62H387.744ZM387.744 40.1818C387.744 37.0958 386.937 34.4142 385.072 32.4102L382.144 35.1353C383.127 36.1918 383.744 37.7829 383.744 40.1818H387.744ZM385.079 32.4174C383.207 30.3859 380.677 29.4545 377.744 29.4545V33.4545C379.781 33.4545 381.161 34.0686 382.137 35.1281L385.079 32.4174ZM377.744 29.4545C375.734 29.4545 373.865 29.8934 372.189 30.8162L374.118 34.3202C375.139 33.7581 376.331 33.4545 377.744 33.4545V29.4545ZM372.18 30.8208C370.495 31.7595 369.178 33.1281 368.236 34.8644L371.752 36.772C372.356 35.6598 373.146 34.8617 374.126 34.3156L372.18 30.8208ZM368.236 34.8644C367.27 36.6465 366.835 38.7194 366.835 41H370.835C370.835 39.22 371.174 37.8384 371.752 36.772L368.236 34.8644ZM400.909 62H398.909V64H400.909V62ZM400.909 27.0909V25.0909H398.909V27.0909H400.909ZM406.273 27.0909H408.273V25.0909H406.273V27.0909ZM406.273 62V64H408.273V62H406.273ZM400.932 20.2045L399.547 21.6479L399.555 21.6549L399.562 21.6618L400.932 20.2045ZM400.932 15.0682L399.562 13.6109L399.555 13.6178L399.547 13.6248L400.932 15.0682ZM406.318 15.0682L404.934 16.5115L404.941 16.5185L404.948 16.5254L406.318 15.0682ZM406.318 20.2045L404.948 18.7473L404.941 18.7542L404.934 18.7612L406.318 20.2045ZM402.909 62V27.0909H398.909V62H402.909ZM400.909 29.0909H406.273V25.0909H400.909V29.0909ZM404.273 27.0909V62H408.273V27.0909H404.273ZM406.273 60H400.909V64H406.273V60ZM403.636 19.2727C403.097 19.2727 402.686 19.1086 402.302 18.7473L399.562 21.6618C400.693 22.7247 402.085 23.2727 403.636 23.2727V19.2727ZM402.316 18.7612C401.954 18.414 401.818 18.0741 401.818 17.6364H397.818C397.818 19.1986 398.424 20.5708 399.547 21.6479L402.316 18.7612ZM401.818 17.6364C401.818 17.1986 401.954 16.8587 402.316 16.5115L399.547 13.6248C398.424 14.7019 397.818 16.0741 397.818 17.6364H401.818ZM402.302 16.5254C402.686 16.1641 403.097 16 403.636 16V12C402.085 12 400.693 12.548 399.562 13.6109L402.302 16.5254ZM403.636 16C404.175 16 404.57 16.163 404.934 16.5115L407.703 13.6248C406.581 12.5491 405.188 12 403.636 12V16ZM404.948 16.5254C405.322 16.8765 405.455 17.2125 405.455 17.6364H409.455C409.455 16.0602 408.83 14.6841 407.688 13.6109L404.948 16.5254ZM405.455 17.6364C405.455 18.0602 405.322 18.3962 404.948 18.7473L407.688 21.6618C408.83 20.5886 409.455 19.2125 409.455 17.6364H405.455ZM404.934 18.7612C404.57 19.1097 404.175 19.2727 403.636 19.2727V23.2727C405.188 23.2727 406.581 22.7236 407.703 21.6479L404.934 18.7612ZM422.028 60.5L420.976 62.2008L420.982 62.2046L420.989 62.2084L422.028 60.5ZM416.415 54.2273L414.614 55.0974L414.62 55.1095L416.415 54.2273ZM416.415 35.3636L414.612 34.4972L414.61 34.5014L416.415 35.3636ZM421.915 28.9545L423.007 30.6302L423.009 30.6285L421.915 28.9545ZM435.574 27.5455L436.221 25.653L436.221 25.653L435.574 27.5455ZM440.415 30.5L439.047 31.9591L439.055 31.9667L440.415 30.5ZM443.892 35.8636L445.757 35.1406L445.757 35.1406L443.892 35.8636ZM445.188 46.3636V48.3636H447.188V46.3636H445.188ZM418.278 46.3636H416.278V48.3636H418.278V46.3636ZM418.278 41.7273V39.7273H416.278V41.7273H418.278ZM439.733 41.7273V43.7273H441.733V41.7273H439.733ZM438.551 36.4545L436.762 37.349L436.766 37.356L436.769 37.3629L438.551 36.4545ZM435.233 32.7955L434.17 34.4894L434.178 34.4945L435.233 32.7955ZM424.642 33.0455L425.763 34.702L425.766 34.6996L424.642 33.0455ZM421.074 37.1364L419.282 36.2484L419.282 36.2484L421.074 37.1364ZM421.188 52.3409L419.396 53.2294L419.4 53.2383L419.405 53.2472L421.188 52.3409ZM425.028 56.5L424.021 58.2276L424.033 58.2345L425.028 56.5ZM434.551 57.3182L435.206 59.2079L435.213 59.2053L435.221 59.2028L434.551 57.3182ZM437.528 55.5L438.916 56.9402L438.923 56.9337L438.93 56.9271L437.528 55.5ZM439.46 52.4545L440.001 50.529L438.232 50.0326L437.588 51.7523L439.46 52.4545ZM444.642 53.9091L446.552 54.5019L447.161 52.539L445.183 51.9835L444.642 53.9091ZM441.892 58.5455L443.323 59.9432L443.331 59.9349L441.892 58.5455ZM437.119 61.6364L437.836 63.5035L437.849 63.4984L437.119 61.6364ZM430.733 60.7273C427.67 60.7273 425.142 60.0541 423.068 58.7916L420.989 62.2084C423.793 63.9156 427.068 64.7273 430.733 64.7273V60.7273ZM423.081 58.7992C420.992 57.5067 419.371 55.7067 418.21 53.345L414.62 55.1095C416.095 58.1114 418.217 60.4933 420.976 62.2008L423.081 58.7992ZM418.216 53.3572C417.067 50.9792 416.46 48.1504 416.46 44.8182H412.46C412.46 48.6375 413.157 52.0814 414.614 55.0973L418.216 53.3572ZM416.46 44.8182C416.46 41.4867 417.066 38.639 418.219 36.2258L414.61 34.5014C413.157 37.5428 412.46 40.9982 412.46 44.8182H416.46ZM418.217 36.2301C419.391 33.7881 420.991 31.9438 423.007 30.6302L420.823 27.2789C418.142 29.0258 416.075 31.4543 414.612 34.4972L418.217 36.2301ZM423.009 30.6285C425.011 29.32 427.378 28.6364 430.188 28.6364V24.6364C426.694 24.6364 423.546 25.4982 420.82 27.2806L423.009 30.6285ZM430.188 28.6364C431.779 28.6364 433.356 28.9009 434.927 29.4379L436.221 25.653C434.246 24.9779 432.232 24.6364 430.188 24.6364V28.6364ZM434.927 29.4379C436.414 29.9464 437.786 30.7767 439.047 31.9591L441.783 29.0409C440.135 27.496 438.279 26.3566 436.221 25.653L434.927 29.4379ZM439.055 31.9667C440.246 33.0709 441.251 34.5853 442.027 36.5867L445.757 35.1406C444.806 32.6874 443.493 30.6261 441.775 29.0333L439.055 31.9667ZM442.027 36.5867C442.776 38.5162 443.188 40.9966 443.188 44.0909H447.188C447.188 40.6701 446.736 37.6656 445.757 35.1406L442.027 36.5867ZM443.188 44.0909V46.3636H447.188V44.0909H443.188ZM445.188 44.3636H418.278V48.3636H445.188V44.3636ZM420.278 46.3636V41.7273H416.278V46.3636H420.278ZM418.278 43.7273H439.733V39.7273H418.278V43.7273ZM441.733 41.7273C441.733 39.4849 441.283 37.409 440.333 35.5462L436.769 37.3629C437.395 38.591 437.733 40.0302 437.733 41.7273H441.733ZM440.34 35.5601C439.405 33.6907 438.048 32.1896 436.288 31.0964L434.178 34.4945C435.296 35.1892 436.152 36.1275 436.762 37.349L440.34 35.5601ZM436.296 31.1015C434.507 29.9784 432.444 29.4545 430.188 29.4545V33.4545C431.81 33.4545 433.111 33.8246 434.17 34.4894L436.296 31.1015ZM430.188 29.4545C427.705 29.4545 425.453 30.0764 423.518 31.3913L425.766 34.6996C426.953 33.8933 428.397 33.4545 430.188 33.4545V29.4545ZM423.521 31.3889C421.688 32.6294 420.268 34.2586 419.282 36.2484L422.866 38.0243C423.547 36.6505 424.506 35.5524 425.763 34.702L423.521 31.3889ZM419.282 36.2484C418.308 38.2133 417.824 40.3212 417.824 42.5455H421.824C421.824 40.9212 422.173 39.423 422.866 38.0243L419.282 36.2484ZM417.824 42.5455V45.6364H421.824V42.5455H417.824ZM417.824 45.6364C417.824 48.4951 418.316 51.0521 419.396 53.2294L422.979 51.4524C422.241 49.9631 421.824 48.0504 421.824 45.6364H417.824ZM419.405 53.2472C420.489 55.3805 422.027 57.0645 424.021 58.2276L426.036 54.7724C424.757 54.0264 423.734 52.9377 422.97 51.4346L419.405 53.2472ZM424.033 58.2345C426.015 59.3723 428.269 59.9091 430.733 59.9091V55.9091C428.863 55.9091 427.315 55.5065 426.024 54.7655L424.033 58.2345ZM430.733 59.9091C432.328 59.9091 433.827 59.6862 435.206 59.2079L433.896 55.4285C433.003 55.7381 431.956 55.9091 430.733 55.9091V59.9091ZM435.221 59.2028C436.625 58.7038 437.866 57.9518 438.916 56.9402L436.141 54.0598C435.524 54.6543 434.78 55.1144 433.882 55.4336L435.221 59.2028ZM438.93 56.9271C439.993 55.8834 440.787 54.6121 441.333 53.1568L437.588 51.7523C437.224 52.7212 436.731 53.4803 436.127 54.0729L438.93 56.9271ZM438.92 54.3801L444.102 55.8347L445.183 51.9835L440.001 50.529L438.92 54.3801ZM442.732 53.3163C442.28 54.7728 441.526 56.0459 440.454 57.156L443.331 59.9349C444.834 58.3783 445.913 56.5605 446.552 54.5019L442.732 53.3163ZM440.461 57.1478C439.391 58.2431 438.047 59.1245 436.389 59.7743L437.849 63.4984C439.979 62.6634 441.817 61.4842 443.323 59.9431L440.461 57.1478ZM436.402 59.7693C434.772 60.3955 432.891 60.7273 430.733 60.7273V64.7273C433.302 64.7273 435.679 64.3318 437.836 63.5034L436.402 59.7693ZM454.369 61.1591L455.784 59.7449L455.784 59.7449L454.369 61.1591ZM460.142 55.3864L461.556 53.9722L461.556 53.9721L460.142 55.3864ZM460.778 60.3182L459.071 59.277L459.061 59.2923L459.052 59.3078L460.778 60.3182ZM459.301 61.8182L460.33 63.5332L460.336 63.5295L460.342 63.5258L459.301 61.8182ZM457.256 60.3636C456.673 60.3636 456.217 60.1783 455.784 59.7449L452.955 62.5733C454.128 63.746 455.596 64.3636 457.256 64.3636V60.3636ZM455.784 59.7449C455.35 59.3115 455.165 58.8559 455.165 58.2727H451.165C451.165 59.932 451.782 61.4006 452.955 62.5733L455.784 59.7449ZM455.165 58.2727C455.165 57.6896 455.35 57.234 455.784 56.8006L452.955 53.9721C451.782 55.1448 451.165 56.6135 451.165 58.2727H455.165ZM455.784 56.8006C456.217 56.3672 456.673 56.1818 457.256 56.1818V52.1818C455.596 52.1818 454.128 52.7995 452.955 53.9721L455.784 56.8006ZM457.256 56.1818C457.839 56.1818 458.294 56.3672 458.728 56.8006L461.556 53.9721C460.384 52.7995 458.915 52.1818 457.256 52.1818V56.1818ZM458.728 56.8006C459.161 57.234 459.347 57.6896 459.347 58.2727H463.347C463.347 56.6135 462.729 55.1448 461.556 53.9722L458.728 56.8006ZM459.347 58.2727C459.347 58.6557 459.254 58.9761 459.071 59.277L462.486 61.3594C463.06 60.4179 463.347 59.3746 463.347 58.2727H459.347ZM459.052 59.3078C458.858 59.6404 458.602 59.9021 458.26 60.1106L460.342 63.5258C461.243 62.9767 461.972 62.2384 462.504 61.3285L459.052 59.3078ZM458.272 60.1032C457.999 60.2669 457.678 60.3636 457.256 60.3636V64.3636C458.349 64.3636 459.391 64.0967 460.33 63.5332L458.272 60.1032ZM471.994 61.1591L473.409 59.7449L473.409 59.7449L471.994 61.1591ZM477.767 55.3864L479.181 53.9722L479.181 53.9721L477.767 55.3864ZM478.403 60.3182L476.696 59.277L476.686 59.2923L476.677 59.3078L478.403 60.3182ZM476.926 61.8182L477.955 63.5332L477.961 63.5295L477.967 63.5258L476.926 61.8182ZM474.881 60.3636C474.298 60.3636 473.842 60.1783 473.409 59.7449L470.58 62.5733C471.753 63.746 473.221 64.3636 474.881 64.3636V60.3636ZM473.409 59.7449C472.975 59.3115 472.79 58.8559 472.79 58.2727H468.79C468.79 59.932 469.407 61.4006 470.58 62.5733L473.409 59.7449ZM472.79 58.2727C472.79 57.6896 472.975 57.234 473.409 56.8006L470.58 53.9721C469.407 55.1448 468.79 56.6135 468.79 58.2727H472.79ZM473.409 56.8006C473.842 56.3672 474.298 56.1818 474.881 56.1818V52.1818C473.221 52.1818 471.753 52.7995 470.58 53.9721L473.409 56.8006ZM474.881 56.1818C475.464 56.1818 475.919 56.3672 476.353 56.8006L479.181 53.9721C478.009 52.7995 476.54 52.1818 474.881 52.1818V56.1818ZM476.353 56.8006C476.786 57.234 476.972 57.6896 476.972 58.2727H480.972C480.972 56.6135 480.354 55.1448 479.181 53.9722L476.353 56.8006ZM476.972 58.2727C476.972 58.6557 476.879 58.9761 476.696 59.277L480.111 61.3594C480.685 60.4179 480.972 59.3746 480.972 58.2727H476.972ZM476.677 59.3078C476.483 59.6404 476.227 59.9021 475.885 60.1106L477.967 63.5258C478.868 62.9767 479.597 62.2384 480.129 61.3285L476.677 59.3078ZM475.897 60.1032C475.624 60.2669 475.303 60.3636 474.881 60.3636V64.3636C475.974 64.3636 477.016 64.0967 477.955 63.5332L475.897 60.1032ZM489.619 61.1591L491.034 59.7449L491.034 59.7449L489.619 61.1591ZM495.392 55.3864L496.806 53.9722L496.806 53.9721L495.392 55.3864ZM496.028 60.3182L494.321 59.277L494.311 59.2923L494.302 59.3078L496.028 60.3182ZM494.551 61.8182L495.58 63.5332L495.586 63.5295L495.592 63.5258L494.551 61.8182ZM492.506 60.3636C491.923 60.3636 491.467 60.1783 491.034 59.7449L488.205 62.5733C489.378 63.746 490.846 64.3636 492.506 64.3636V60.3636ZM491.034 59.7449C490.6 59.3115 490.415 58.8559 490.415 58.2727H486.415C486.415 59.932 487.032 61.4006 488.205 62.5733L491.034 59.7449ZM490.415 58.2727C490.415 57.6896 490.6 57.234 491.034 56.8006L488.205 53.9721C487.032 55.1448 486.415 56.6135 486.415 58.2727H490.415ZM491.034 56.8006C491.467 56.3672 491.923 56.1818 492.506 56.1818V52.1818C490.846 52.1818 489.378 52.7995 488.205 53.9721L491.034 56.8006ZM492.506 56.1818C493.089 56.1818 493.544 56.3672 493.978 56.8006L496.806 53.9721C495.634 52.7995 494.165 52.1818 492.506 52.1818V56.1818ZM493.978 56.8006C494.411 57.234 494.597 57.6896 494.597 58.2727H498.597C498.597 56.6135 497.979 55.1448 496.806 53.9722L493.978 56.8006ZM494.597 58.2727C494.597 58.6557 494.504 58.9761 494.321 59.277L497.736 61.3594C498.31 60.4179 498.597 59.3746 498.597 58.2727H494.597ZM494.302 59.3078C494.108 59.6404 493.852 59.9021 493.51 60.1106L495.592 63.5258C496.493 62.9767 497.222 62.2384 497.754 61.3285L494.302 59.3078ZM493.522 60.1032C493.249 60.2669 492.928 60.3636 492.506 60.3636V64.3636C493.599 64.3636 494.641 64.0967 495.58 63.5332L493.522 60.1032Z" fill="#0DBC79"/>
</svg>
