<svg width="392" height="78" viewBox="0 0 392 78" fill="none" xmlns="http://www.w3.org/2000/svg">
<path d="M31.0997 27.2434L29.1136 27.4793L29.3232 29.244L31.1003 29.2434L31.0997 27.2434ZM27.7798 21.8809L26.683 23.5533L26.683 23.5533L27.7798 21.8809ZM15.234 20.9758L14.4412 19.1397L14.4346 19.1425L15.234 20.9758ZM11.644 23.727L10.0361 22.5376L10.0311 22.5444L10.0261 22.5512L11.644 23.727ZM11.26 30.909L9.59188 32.0124L9.60273 32.0288L9.6139 32.045L11.26 30.909ZM13.5789 33.1127L12.5145 34.806L12.5244 34.8122L12.5343 34.8183L13.5789 33.1127ZM16.5339 34.5436L15.8443 36.421L15.8566 36.4255L15.8688 36.4298L16.5339 34.5436ZM19.3751 35.4291L19.8944 33.4976L19.8834 33.4947L19.3751 35.4291ZM24.1027 36.7002L23.5834 38.6317L23.5956 38.6349L24.1027 36.7002ZM28.1486 38.0171L27.4428 39.8884L27.4491 39.8908L28.1486 38.0171ZM32.4448 40.3112L31.2863 41.9415L31.2966 41.9488L31.3069 41.9559L32.4448 40.3112ZM35.8551 43.9919L37.5728 42.9675L37.5728 42.9675L35.8551 43.9919ZM35.2227 56.333L33.5449 55.2444L33.5392 55.2533L35.2227 56.333ZM29.497 61.1758L28.637 59.3701L28.6328 59.3722L29.497 61.1758ZM11.7244 61.3633L10.9137 63.1917L10.918 63.1936L11.7244 61.3633ZM5.99564 56.8652L4.37026 58.0306L4.37634 58.039L5.99564 56.8652ZM3.65256 50.1614L3.65191 48.1614L1.50396 48.1621L1.65769 50.3046L3.65256 50.1614ZM9.47074 50.1595L11.4633 49.9871L11.3051 48.1589L9.47009 48.1595L9.47074 50.1595ZM11.2449 54.5226L9.75483 55.8567L9.76407 55.867L9.77346 55.8772L11.2449 54.5226ZM15.2002 57.0668L14.5362 58.9533L14.5469 58.9571L14.5577 58.9607L15.2002 57.0668ZM26.1774 56.8359L26.9321 58.6881L26.9391 58.6852L26.9461 58.6823L26.1774 56.8359ZM30.2447 53.8801L31.8105 55.1244L31.8177 55.1152L30.2447 53.8801ZM30.4466 45.6527L31.9397 44.3221L31.9397 44.3221L30.4466 45.6527ZM27.0367 43.2902L26.2471 45.1277L26.2471 45.1277L27.0367 43.2902ZM22.468 41.7008L21.9192 43.624L21.9263 43.626L21.9333 43.628L22.468 41.7008ZM16.7402 40.0663L16.1882 41.9886L16.1914 41.9895L16.7402 40.0663ZM8.10238 35.5918L6.75332 37.0683L6.75332 37.0683L8.10238 35.5918ZM7.02953 21.1603L5.41276 19.983L5.41113 19.9853L7.02953 21.1603ZM12.7553 16.613L13.5757 18.437L13.5809 18.4347L12.7553 16.613ZM28.8235 16.5851L27.9867 18.4016L27.9965 18.4061L28.8235 16.5851ZM34.3704 20.9469L32.7613 22.1348L32.7676 22.1432L34.3704 20.9469ZM36.5542 27.2417L36.5549 29.2417L38.6204 29.241L38.5532 27.1765L36.5542 27.2417ZM33.0857 27.0076C32.7426 24.1178 31.3103 21.8044 28.8765 20.2084L26.683 23.5533C28.1289 24.5015 28.9099 25.7632 29.1136 27.4793L33.0857 27.0076ZM28.8765 20.2084C26.5465 18.6804 23.7657 17.9731 20.6421 17.9741L20.6434 21.9741C23.1563 21.9733 25.1334 22.5371 26.683 23.5533L28.8765 20.2084ZM20.6421 17.9741C18.3686 17.9748 16.286 18.3432 14.4412 19.1397L16.0268 22.812C17.2725 22.2742 18.7957 21.9747 20.6434 21.9741L20.6421 17.9741ZM14.4346 19.1425C12.6321 19.9285 11.1374 21.0489 10.0361 22.5376L13.2519 24.9164C13.8771 24.0712 14.7757 23.3575 16.0334 22.8091L14.4346 19.1425ZM10.0261 22.5512C8.92185 24.0706 8.37194 25.8111 8.37256 27.7053L12.3726 27.704C12.3722 26.6286 12.6699 25.7173 13.2618 24.9028L10.0261 22.5512ZM8.37256 27.7053C8.37307 29.2759 8.75148 30.7419 9.59188 32.0124L12.928 29.8055C12.586 29.2885 12.3729 28.6184 12.3726 27.704L8.37256 27.7053ZM9.6139 32.045C10.3805 33.1557 11.3545 34.0769 12.5145 34.806L14.6432 31.4195C13.924 30.9674 13.3521 30.4194 12.906 29.773L9.6139 32.045ZM12.5343 34.8183C13.5858 35.4623 14.6897 35.9969 15.8443 36.421L17.2234 32.6662C16.3171 32.3334 15.451 31.9141 14.6234 31.4072L12.5343 34.8183ZM15.8688 36.4298C16.9399 36.8074 17.94 37.1198 18.8667 37.3634L19.8834 33.4947C19.0827 33.2843 18.1887 33.0064 17.1989 32.6574L15.8688 36.4298ZM18.8557 37.3604L23.5834 38.6316L24.6221 34.7688L19.8944 33.4977L18.8557 37.3604ZM23.5956 38.6349C24.7256 38.9311 26.0066 39.3467 27.4428 39.8884L28.8545 36.1458C27.3206 35.5673 25.9043 35.105 24.6099 34.7656L23.5956 38.6349ZM27.4491 39.8908C28.7792 40.3874 30.0577 41.0684 31.2863 41.9415L33.6033 38.6809C32.104 37.6154 30.5185 36.7671 28.8482 36.1435L27.4491 39.8908ZM31.3069 41.9559C32.4408 42.7404 33.3834 43.7521 34.1374 45.0163L37.5728 42.9675C36.5379 41.2323 35.207 39.7902 33.5827 38.6664L31.3069 41.9559ZM34.1374 45.0163C34.8063 46.138 35.1972 47.6044 35.1978 49.5148L39.1978 49.5135C39.197 47.0604 38.6927 44.8453 37.5728 42.9675L34.1374 45.0163ZM35.1978 49.5148C35.1985 51.6593 34.6436 53.5511 33.5449 55.2445L36.9006 57.4216C38.437 55.0534 39.1987 52.3994 39.1978 49.5135L35.1978 49.5148ZM33.5392 55.2533C32.4678 56.9239 30.868 58.3075 28.637 59.3701L30.3571 62.9814C33.1556 61.6485 35.3729 59.8036 36.9063 57.4127L33.5392 55.2533ZM28.6328 59.3722C26.4691 60.4089 23.7437 60.9731 20.3833 60.9742L20.3846 64.9742C24.1757 64.973 27.5257 64.3382 30.3613 62.9794L28.6328 59.3722ZM20.3833 60.9742C17.2605 60.9752 14.661 60.4717 12.5308 59.5331L10.918 63.1936C13.6672 64.4049 16.8408 64.9753 20.3846 64.9742L20.3833 60.9742ZM12.535 59.535C10.3946 58.586 8.77908 57.2973 7.61493 55.6914L4.37634 58.039C6.00132 60.2807 8.20494 61.9907 10.9137 63.1917L12.535 59.535ZM7.621 55.6998C6.47357 54.0995 5.80578 52.2252 5.64743 50.0183L1.65769 50.3046C1.86462 53.1884 2.75888 55.7833 4.37028 58.0306L7.621 55.6998ZM3.65321 52.1614L9.47139 52.1595L9.47009 48.1595L3.65191 48.1614L3.65321 52.1614ZM7.47819 50.332C7.66208 52.4571 8.39531 54.3382 9.75483 55.8567L12.7349 53.1885C12.0331 52.4046 11.5836 51.3771 11.4633 49.9871L7.47819 50.332ZM9.77346 55.8772C11.0609 57.2756 12.6656 58.2948 14.5362 58.9533L15.8643 55.1802C14.5527 54.7185 13.5205 54.0416 12.7163 53.168L9.77346 55.8772ZM14.5577 58.9607C16.3889 59.582 18.3353 59.8839 20.383 59.8833L20.3817 55.8833C18.7324 55.8838 17.2241 55.6414 15.8428 55.1728L14.5577 58.9607ZM20.383 59.8833C22.7512 59.8825 24.9449 59.4978 26.9321 58.6881L25.4228 54.9838C23.9862 55.5691 22.3165 55.8826 20.3817 55.8833L20.383 59.8833ZM26.9461 58.6823C28.9218 57.8598 30.5699 56.6855 31.8105 55.1244L28.6789 52.6358C27.9203 53.5904 26.8569 54.3867 25.4088 54.9896L26.9461 58.6823ZM31.8177 55.1152C33.1081 53.4718 33.7439 51.5462 33.7432 49.4244L29.7432 49.4257C29.7436 50.6979 29.3804 51.7423 28.6716 52.6449L31.8177 55.1152ZM33.7432 49.4244C33.7426 47.4868 33.1899 45.725 31.9397 44.3221L28.9535 46.9834C29.4311 47.5193 29.7429 48.2724 29.7432 49.4257L33.7432 49.4244ZM31.9397 44.3221C30.849 43.0982 29.4561 42.153 27.8263 41.4527L26.2471 45.1277C27.4358 45.6386 28.3162 46.2684 28.9535 46.9834L31.9397 44.3221ZM27.8263 41.4527C26.3259 40.8079 24.717 40.2492 23.0027 39.7736L21.9333 43.628C23.492 44.0604 24.9289 44.5613 26.2471 45.1277L27.8263 41.4527ZM23.0168 39.7776L17.289 38.143L16.1914 41.9895L21.9192 43.624L23.0168 39.7776ZM17.2922 38.144C13.862 37.159 11.2852 35.7908 9.45144 34.1153L6.75332 37.0683C9.16324 39.2702 12.345 40.885 16.1882 41.9886L17.2922 38.144ZM9.45144 34.1153C7.78459 32.5923 6.91895 30.6106 6.9181 27.9785L2.9181 27.9798C2.91928 31.6205 4.1765 34.7139 6.75332 37.0683L9.45144 34.1153ZM6.9181 27.9785C6.91738 25.756 7.50949 23.9033 8.64793 22.3354L5.41113 19.9853C3.73264 22.297 2.91713 24.9902 2.9181 27.9798L6.9181 27.9785ZM8.6463 22.3376C9.84793 20.6875 11.4714 19.3834 13.5757 18.437L11.935 14.789C9.25204 15.9957 7.05835 17.7232 5.41276 19.983L8.6463 22.3376ZM13.5809 18.4347C15.7003 17.4741 18.1034 16.9749 20.8236 16.974L20.8223 12.974C17.6032 12.9751 14.6278 13.5686 11.9297 14.7914L13.5809 18.4347ZM20.8236 16.974C23.5826 16.9731 25.9561 17.4662 27.9867 18.4016L29.6603 14.7685C27.0236 13.5539 24.0634 12.973 20.8223 12.974L20.8236 16.974ZM27.9965 18.4061C30.0564 19.3416 31.6222 20.5916 32.7613 22.1347L35.9794 19.7591C34.3901 17.6061 32.2579 15.9482 29.6505 14.7641L27.9965 18.4061ZM32.7676 22.1432C33.8975 23.657 34.4918 25.3588 34.5553 27.3068L38.5532 27.1765C38.4636 24.4276 37.602 21.9329 35.9731 19.7506L32.7676 22.1432ZM36.5536 25.2417L31.099 25.2434L31.1003 29.2434L36.5549 29.2417L36.5536 25.2417ZM45.7417 62.1478L43.7417 62.1484L43.7423 64.1484L45.7423 64.1478L45.7417 62.1478ZM45.7304 27.2387L45.7297 25.2387L43.7297 25.2393L43.7304 27.2393L45.7304 27.2387ZM50.9122 27.237L52.9122 27.2364L52.9115 25.2364L50.9115 25.237L50.9122 27.237ZM50.9139 32.6916L48.9139 32.6922L48.9146 34.6922L50.9146 34.6916L50.9139 32.6916ZM51.3685 32.6914L51.3691 34.6914L52.7355 34.691L53.2319 33.4179L51.3685 32.6914ZM54.8898 28.3494L55.9631 30.037L55.9743 30.0298L54.8898 28.3494ZM66.4807 28.3456L65.3531 29.9974L65.3624 30.0038L65.3719 30.0101L66.4807 28.3456ZM70.0958 32.6854L68.2814 33.5269L68.8189 34.6858L70.0964 34.6854L70.0958 32.6854ZM70.4594 32.6852L70.46 34.6852L71.7008 34.6848L72.2515 33.5731L70.4594 32.6852ZM74.4807 28.3885L75.5017 30.1083L75.5124 30.1018L74.4807 28.3885ZM88.5721 29.7021L87.1692 31.1276L87.1748 31.133L88.5721 29.7021ZM91.5599 62.1329L91.5605 64.1329L93.5605 64.1323L93.5599 62.1323L91.5599 62.1329ZM86.1962 62.1347L84.1962 62.1353L84.1969 64.1353L86.1969 64.1347L86.1962 62.1347ZM84.0732 33.249L82.8388 34.8226L82.8388 34.8226L84.0732 33.249ZM73.3916 33.8206L74.8657 35.1723L74.8726 35.1648L73.3916 33.8206ZM71.378 62.1395L71.3787 64.1395L73.3787 64.1388L73.378 62.1388L71.378 62.1395ZM65.9235 62.1412L63.9235 62.1419L63.9241 64.1419L65.9241 64.1412L65.9235 62.1412ZM63.9824 33.4373L62.6031 34.8857L62.6121 34.8942L63.9824 33.4373ZM55.0958 32.7129L54.0506 31.0077L54.041 31.0137L55.0958 32.7129ZM52.1877 35.8048L50.4447 34.8239L50.441 34.8306L52.1877 35.8048ZM51.1053 62.146L51.106 64.146L53.106 64.1454L53.1053 62.1454L51.1053 62.146ZM47.7417 62.1471L47.7304 27.238L43.7304 27.2393L43.7417 62.1484L47.7417 62.1471ZM45.731 29.2387L50.9128 29.237L50.9115 25.237L45.7297 25.2387L45.731 29.2387ZM48.9122 27.2377L48.9139 32.6922L52.9139 32.6909L52.9122 27.2364L48.9122 27.2377ZM50.9146 34.6916L51.3691 34.6914L51.3678 30.6914L50.9133 30.6916L50.9146 34.6916ZM53.2319 33.4179C53.8109 31.9327 54.7166 30.8297 55.9631 30.037L53.8165 26.6617C51.8212 27.9307 50.3794 29.7224 49.5051 31.9649L53.2319 33.4179ZM55.9743 30.0298C57.2181 29.2271 58.7729 28.7799 60.7309 28.7793L60.7296 24.7793C58.142 24.7801 55.8032 25.3796 53.8054 26.6689L55.9743 30.0298ZM60.7309 28.7793C62.7296 28.7786 64.2278 29.2292 65.3531 29.9974L67.6084 26.6938C65.6724 25.3722 63.3369 24.7784 60.7296 24.7793L60.7309 28.7793ZM65.3719 30.0101C66.5794 30.8145 67.5552 31.9611 68.2814 33.5269L71.9101 31.8438C70.9079 29.6829 69.4736 27.9363 67.5896 26.6812L65.3719 30.0101ZM70.0964 34.6854L70.46 34.6852L70.4588 30.6852L70.0951 30.6854L70.0964 34.6854ZM72.2515 33.5731C72.9677 32.1275 74.0346 30.9792 75.5017 30.1083L73.4598 26.6687C71.3518 27.9201 69.7379 29.6363 68.6673 31.7974L72.2515 33.5731ZM75.5124 30.1018C76.932 29.247 78.7037 28.7735 80.9127 28.7728L80.9114 24.7728C78.1204 24.7737 75.6045 25.3772 73.4491 26.6751L75.5124 30.1018ZM80.9127 28.7728C83.5777 28.7719 85.6045 29.5877 87.1692 31.1276L89.9749 28.2766C87.5687 25.9087 84.4887 24.7716 80.9114 24.7728L80.9127 28.7728ZM87.1748 31.133C88.6232 32.5474 89.551 34.9448 89.5523 38.77L93.5523 38.7687C93.5509 34.3817 92.4919 30.7343 89.9693 28.2711L87.1748 31.133ZM89.5523 38.77L89.5599 62.1336L93.5599 62.1323L93.5523 38.7687L89.5523 38.77ZM91.5592 60.1329L86.1956 60.1347L86.1969 64.1347L91.5605 64.1329L91.5592 60.1329ZM88.1962 62.134L88.1886 38.7704L84.1886 38.7717L84.1962 62.1353L88.1962 62.134ZM88.1886 38.7704C88.1877 35.8618 87.385 33.305 85.3076 31.6754L82.8388 34.8226C83.5803 35.4043 84.1879 36.5288 84.1886 38.7717L88.1886 38.7704ZM85.3076 31.6754C83.5218 30.2746 81.4201 29.5908 79.0948 29.5915L79.0961 33.5915C80.5889 33.591 81.8057 34.0122 82.8388 34.8226L85.3076 31.6754ZM79.0948 29.5915C76.2127 29.5925 73.7203 30.4825 71.9106 32.4765L74.8726 35.1648C75.7588 34.1883 77.0691 33.5922 79.0961 33.5915L79.0948 29.5915ZM71.9175 32.469C70.186 34.3574 69.3698 36.7256 69.3707 39.4129L73.3707 39.4116C73.3701 37.5837 73.9012 36.2242 74.8657 35.1723L71.9175 32.469ZM69.3707 39.4129L69.378 62.1401L73.378 62.1388L73.3707 39.4116L69.3707 39.4129ZM71.3774 60.1395L65.9228 60.1412L65.9241 64.1412L71.3787 64.1395L71.3774 60.1395ZM67.9235 62.1406L67.9157 38.2315L63.9157 38.2328L63.9235 62.1419L67.9235 62.1406ZM67.9157 38.2315C67.9149 35.7696 67.0937 33.6181 65.3526 31.9805L62.6121 34.8942C63.4475 35.68 63.9153 36.725 63.9157 38.2328L67.9157 38.2315ZM65.3616 31.989C63.6482 30.3573 61.4696 29.5972 59.0039 29.598L59.0051 33.598C60.6 33.5975 61.74 34.0636 62.6031 34.8856L65.3616 31.989ZM59.0039 29.598C57.2336 29.5986 55.5703 30.0763 54.0506 31.0078L56.1409 34.4181C57.045 33.864 57.9875 33.5984 59.0051 33.598L59.0039 29.598ZM54.041 31.0137C52.537 31.9472 51.3394 33.2343 50.4447 34.8239L53.9306 36.7857C54.52 35.7385 55.2611 34.9643 56.1505 34.4122L54.041 31.0137ZM50.441 34.8306C49.5248 36.4734 49.0976 38.326 49.0982 40.3285L53.0982 40.3272C53.0978 38.9055 53.3969 37.7427 53.9344 36.779L50.441 34.8306ZM49.0982 40.3285L49.1053 62.1467L53.1053 62.1454L53.0982 40.3272L49.0982 40.3285ZM51.1047 60.146L45.741 60.1478L45.7423 64.1478L51.106 64.146L51.1047 60.146ZM105.617 61.6966L104.765 63.5065L104.778 63.5123L105.617 61.6966ZM101.32 58.0389L99.6513 59.1416L99.6561 59.1488L101.32 58.0389ZM100.907 47.3572L102.597 48.4277L102.603 48.4185L100.907 47.3572ZM108.429 42.8093L108.857 44.7629L108.871 44.7598L108.429 42.8093ZM113.269 41.9441L113.014 39.9605L113.009 39.9611L113.269 41.9441ZM118.428 41.3288L118.635 43.3181L118.645 43.3171L118.655 43.3159L118.428 41.3288ZM121.337 40.5778L120.358 38.8339L120.349 38.8391L120.339 38.8444L121.337 40.5778ZM120.426 33.3509L118.994 34.748L119.003 34.7568L120.426 33.3509ZM108.88 33.1728L110.102 34.7564L110.102 34.7564L108.88 33.1728ZM105.813 36.7647L105.141 38.6484L106.859 39.2615L107.627 37.6063L105.813 36.7647ZM100.721 34.9482L98.883 34.1609L98.0454 36.1169L100.049 36.8319L100.721 34.9482ZM104.356 29.9924L105.587 31.569L105.589 31.5674L104.356 29.9924ZM109.355 27.4908L109.86 29.4261L109.871 29.4231L109.355 27.4908ZM118.583 27.1696L118.215 29.1355L118.226 29.1377L118.238 29.1397L118.583 27.1696ZM122.833 28.7819L121.805 30.4972L121.813 30.5022L122.833 28.7819ZM126.266 32.4853L124.514 33.4504L124.514 33.4504L126.266 32.4853ZM127.639 62.1213L127.64 64.1213L129.64 64.1206L129.639 62.1206L127.639 62.1213ZM122.276 62.123L120.276 62.1236L120.276 64.1236L122.276 64.123L122.276 62.123ZM122.274 57.3957L124.274 57.3951L124.274 55.3951L122.274 55.3957L122.274 57.3957ZM122.001 57.3958L122.001 55.3958L120.742 55.3962L120.198 56.5309L122.001 57.3958ZM120.184 59.8282L121.611 61.2294L121.611 61.2294L120.184 59.8282ZM116.798 62.0339L116.008 60.1969L116.008 60.1969L116.798 62.0339ZM117.82 56.8744L116.832 55.135L116.825 55.1394L117.82 56.8744ZM121.137 53.6461L119.402 52.6501L119.398 52.6576L119.394 52.6652L121.137 53.6461ZM122.27 44.5775L124.27 44.5769L124.268 39.0528L120.733 43.2977L122.27 44.5775ZM120.77 45.328L121.31 47.2538L121.323 47.2503L121.335 47.2466L120.77 45.328ZM118.134 45.8971L118.439 47.8737L118.451 47.8718L118.464 47.8697L118.134 45.8971ZM115.248 46.3071L115.477 48.294L115.491 48.2924L115.504 48.2906L115.248 46.3071ZM112.998 46.5805L113.257 48.5637L113.26 48.5634L112.998 46.5805ZM109.089 47.4682L109.715 49.3677L109.722 49.3654L109.729 49.363L109.089 47.4682ZM106.181 49.2646L104.712 47.9073L104.711 47.9085L106.181 49.2646ZM107.16 56.7188L106.022 58.3636L106.033 58.3707L106.043 58.3777L107.16 56.7188ZM111.639 60.9446C109.683 60.9453 107.967 60.5789 106.455 59.8808L104.778 63.5123C106.873 64.4797 109.172 64.9454 111.64 64.9446L111.639 60.9446ZM106.468 59.8867C104.979 59.1869 103.834 58.2034 102.984 56.9289L99.6561 59.1488C100.928 61.0555 102.647 62.5105 104.766 63.5065L106.468 59.8867ZM102.988 56.9362C102.18 55.7129 101.728 54.1736 101.727 52.2206L97.7271 52.2219C97.7279 54.8142 98.3375 57.1534 99.6513 59.1415L102.988 56.9362ZM101.727 52.2206C101.727 50.4678 102.073 49.2543 102.597 48.4277L99.218 46.2867C98.1668 47.9455 97.7264 49.9746 97.7271 52.2219L101.727 52.2206ZM102.603 48.4185C103.205 47.4567 104 46.7107 105.017 46.161L103.114 42.6423C101.495 43.5176 100.185 44.742 99.2121 46.2959L102.603 48.4185ZM105.017 46.161C106.157 45.5446 107.433 45.0753 108.857 44.7628L108 40.8558C106.243 41.2413 104.61 41.8336 103.114 42.6423L105.017 46.161ZM108.871 44.7598C110.417 44.4092 111.97 44.1317 113.529 43.9271L113.009 39.9611C111.326 40.1818 109.652 40.4811 107.986 40.8588L108.871 44.7598ZM113.525 43.9277C115.638 43.6553 117.34 43.4525 118.635 43.3181L118.222 39.3395C116.88 39.4787 115.142 39.6861 113.014 39.9605L113.525 43.9277ZM118.655 43.3159C120.056 43.1563 121.362 42.8709 122.334 42.3113L120.339 38.8444C120.1 38.9821 119.467 39.1974 118.202 39.3417L118.655 43.3159ZM122.316 42.3218C123.712 41.5381 124.269 40.1639 124.268 38.7587L120.268 38.76C120.268 38.9575 120.232 38.9949 120.255 38.9501C120.267 38.9272 120.287 38.8984 120.313 38.8714C120.325 38.8589 120.336 38.8494 120.345 38.8428C120.354 38.8362 120.359 38.8335 120.358 38.8339L122.316 42.3218ZM124.268 38.7587L124.268 38.5769L120.268 38.5782L120.268 38.76L124.268 38.7587ZM124.268 38.5769C124.267 35.9644 123.542 33.6592 121.848 31.9449L119.003 34.7568C119.764 35.5266 120.268 36.7058 120.268 38.5782L124.268 38.5769ZM121.857 31.9538C120.132 30.1874 117.679 29.4881 114.902 29.489L114.903 33.489C117.064 33.4883 118.294 34.0303 118.994 34.748L121.857 31.9538ZM114.902 29.489C112.07 29.4899 109.577 30.1092 107.658 31.5892L110.102 34.7564C111.091 33.993 112.613 33.4898 114.903 33.489L114.902 29.489ZM107.658 31.5892C106.026 32.8486 104.76 34.2829 103.999 35.9231L107.627 37.6063C108.047 36.7007 108.826 35.7404 110.102 34.7564L107.658 31.5892ZM106.485 34.881L101.394 33.0645L100.049 36.8319L105.141 38.6484L106.485 34.881ZM102.56 35.7354C103.362 33.8619 104.387 32.5058 105.587 31.569L103.126 28.4158C101.296 29.8437 99.8976 31.7914 98.883 34.1609L102.56 35.7354ZM105.589 31.5674C106.913 30.5312 108.333 29.8243 109.86 29.4261L108.851 25.5556C106.772 26.0979 104.86 27.0588 103.124 28.4175L105.589 31.5674ZM109.871 29.4231C111.533 28.9794 113.148 28.7623 114.719 28.7618L114.718 24.7618C112.775 24.7624 110.814 25.0313 108.839 25.5585L109.871 29.4231ZM114.719 28.7618C115.685 28.7615 116.846 28.8793 118.215 29.1355L118.951 25.2038C117.41 24.9155 115.995 24.7614 114.718 24.7618L114.719 28.7618ZM118.238 29.1397C119.451 29.3518 120.637 29.7973 121.805 30.4972L123.862 27.0666C122.301 26.1311 120.654 25.5016 118.927 25.1996L118.238 29.1397ZM121.813 30.5022C122.835 31.1082 123.746 32.0562 124.514 33.4504L128.018 31.5203C126.967 29.612 125.589 28.0911 123.853 27.0616L121.813 30.5022ZM124.514 33.4504C125.202 34.6995 125.631 36.5389 125.632 39.1219L129.632 39.1206C129.631 36.1582 129.149 33.5737 128.018 31.5203L124.514 33.4504ZM125.632 39.1219L125.639 62.1219L129.639 62.1206L129.632 39.1206L125.632 39.1219ZM127.639 60.1213L122.275 60.123L122.276 64.123L127.64 64.1213L127.639 60.1213ZM124.276 62.1224L124.274 57.3951L120.274 57.3964L120.276 62.1236L124.276 62.1224ZM122.274 55.3957L122.001 55.3958L122.002 59.3958L122.275 59.3957L122.274 55.3957ZM120.198 56.5309C119.962 57.024 119.513 57.657 118.757 58.427L121.611 61.2294C122.552 60.2716 123.314 59.2831 123.805 58.2607L120.198 56.5309ZM118.757 58.427C118.132 59.0635 117.239 59.6666 116.008 60.1969L117.589 63.8709C119.175 63.1881 120.54 62.3207 121.611 61.2294L118.757 58.427ZM116.008 60.1969C114.915 60.6672 113.481 60.944 111.639 60.9446L111.64 64.9446C113.859 64.9439 115.864 64.6135 117.589 63.8709L116.008 60.1969ZM112.457 60.1262C114.836 60.1254 116.987 59.6571 118.814 58.6095L116.825 55.1394C115.743 55.7594 114.319 56.1256 112.456 56.1262L112.457 60.1262ZM118.807 58.6139C120.554 57.6222 121.939 56.2982 122.88 54.627L119.394 52.6652C118.85 53.6308 118.024 54.4591 116.832 55.135L118.807 58.6139ZM122.871 54.6421C123.794 53.0347 124.272 51.3064 124.272 49.486L120.272 49.4873C120.272 50.576 119.993 51.6206 119.402 52.6501L122.871 54.6421ZM124.272 49.486L124.27 44.5769L120.27 44.5782L120.272 49.4873L124.272 49.486ZM120.733 43.2977C120.808 43.2076 120.869 43.163 120.881 43.1542C120.894 43.1444 120.882 43.1551 120.83 43.1812C120.721 43.2357 120.523 43.3159 120.205 43.4095L121.335 47.2466C121.79 47.1126 122.229 46.954 122.62 46.7583C122.99 46.573 123.445 46.2926 123.807 45.8574L120.733 43.2977ZM120.23 43.4023C119.559 43.5906 118.753 43.7661 117.805 43.9244L118.464 47.8697C119.515 47.6941 120.467 47.4902 121.31 47.2538L120.23 43.4023ZM117.829 43.9204C116.86 44.0699 115.914 44.2043 114.991 44.3236L115.504 48.2906C116.461 48.1669 117.439 48.0279 118.439 47.8737L117.829 43.9204ZM115.019 44.3202C114.09 44.4272 113.328 44.5197 112.736 44.5977L113.26 48.5634C113.82 48.4895 114.558 48.3997 115.477 48.294L115.019 44.3202ZM112.739 44.5974C111.228 44.795 109.796 45.1182 108.449 45.5734L109.729 49.363C110.806 48.9992 111.98 48.7306 113.257 48.5637L112.739 44.5974ZM108.463 45.5686C106.994 46.0529 105.717 46.8189 104.712 47.9073L107.65 50.6218C108.128 50.1037 108.791 49.6721 109.715 49.3677L108.463 45.5686ZM104.711 47.9085C103.557 49.1586 103.09 50.7682 103.091 52.4928L107.091 52.4916C107.09 51.4889 107.35 50.9468 107.651 50.6207L104.711 47.9085ZM103.091 52.4928C103.092 54.9275 104.037 56.99 106.022 58.3636L108.298 55.074C107.525 54.5394 107.091 53.7842 107.091 52.4916L103.091 52.4928ZM106.043 58.3777C107.847 59.5924 110.03 60.127 112.457 60.1262L112.456 56.1262C110.61 56.1268 109.262 55.723 108.278 55.0599L106.043 58.3777ZM143.156 60.5253L142.062 62.1996L142.062 62.1996L143.156 60.5253ZM137.739 35.4589L135.938 34.5891L135.936 34.5934L137.739 35.4589ZM143.237 29.0708L144.329 30.7461L144.332 30.7443L143.237 29.0708ZM162.988 31.928L164.573 30.7088L164.573 30.7088L162.988 31.928ZM165.33 37.6545L165.331 39.6545L167.628 39.6538L167.311 37.3787L165.33 37.6545ZM159.967 37.6562L158.03 38.155L158.417 39.6567L159.967 39.6562L159.967 37.6562ZM157.238 33.4299L155.908 34.9233L155.916 34.9309L155.925 34.9384L157.238 33.4299ZM146.102 33.2062L147.237 34.8525L147.241 34.8502L146.102 33.2062ZM142.444 37.7756L140.617 36.9613L140.614 36.9678L142.444 37.7756ZM142.426 51.7074L140.585 52.4891L140.59 52.5008L142.426 51.7074ZM146.064 56.3653L144.908 57.9974L144.915 58.0026L146.064 56.3653ZM155.405 57.2941L154.619 55.4548L154.619 55.4548L155.405 57.2941ZM158.291 55.2022L159.802 56.5116L159.802 56.5116L158.291 55.2022ZM159.971 51.929L159.971 49.929L158.427 49.9295L158.036 51.4229L159.971 51.929ZM165.335 51.9272L167.314 52.2176L167.65 49.9265L165.334 49.9272L165.335 51.9272ZM163.087 57.4961L161.467 56.323L161.465 56.3257L163.087 57.4961ZM158.383 61.4068L159.267 63.2009L159.273 63.1981L158.383 61.4068ZM151.611 60.8408C148.663 60.8417 146.239 60.1509 144.25 58.851L142.062 62.1996C144.801 63.9891 148.014 64.8419 151.612 64.8408L151.611 60.8408ZM144.25 58.851C142.215 57.5218 140.635 55.6877 139.51 53.2905L135.889 54.991C137.31 58.0171 139.368 60.4395 142.062 62.1996L144.25 58.851ZM139.51 53.2905C138.38 50.8846 137.788 48.0841 137.787 44.8452L133.787 44.8465C133.788 48.5774 134.472 51.9734 135.889 54.991L139.51 53.2905ZM137.787 44.8452C137.786 41.5466 138.39 38.7226 139.542 36.3244L135.936 34.5934C134.483 37.6203 133.786 41.0543 133.787 44.8465L137.787 44.8452ZM139.54 36.3287C140.712 33.9016 142.311 32.0621 144.329 30.746L142.144 27.3955C139.467 29.1415 137.4 31.5608 135.938 34.5891L139.54 36.3287ZM144.332 30.7443C146.333 29.4352 148.7 28.7508 151.509 28.7499L151.508 24.7499C148.014 24.751 144.867 25.6139 142.142 27.3972L144.332 30.7443ZM151.509 28.7499C153.713 28.7492 155.633 29.1553 157.308 29.9276L158.983 26.2952C156.718 25.2505 154.214 24.749 151.508 24.7499L151.509 28.7499ZM157.308 29.9276C158.999 30.7076 160.352 31.781 161.402 33.1472L164.573 30.7088C163.107 28.803 161.231 27.332 158.983 26.2952L157.308 29.9276ZM161.402 33.1472C162.435 34.4898 163.09 36.0681 163.349 37.9303L167.311 37.3787C166.963 34.8775 166.057 32.6381 164.573 30.7088L161.402 33.1472ZM165.33 35.6545L159.966 35.6562L159.967 39.6562L165.331 39.6545L165.33 35.6545ZM161.904 37.1575C161.38 35.1224 160.222 33.376 158.551 31.9213L155.925 34.9384C157.073 35.9373 157.735 37.0085 158.03 38.155L161.904 37.1575ZM158.568 31.9364C156.718 30.2882 154.32 29.5672 151.6 29.568L151.602 33.568C153.61 33.5674 154.969 34.0875 155.908 34.9233L158.568 31.9364ZM151.6 29.568C149.142 29.5688 146.903 30.2179 144.963 31.5622L147.241 34.8502C148.451 34.0116 149.879 33.5686 151.602 33.568L151.6 29.568ZM144.966 31.5599C143.063 32.8723 141.624 34.703 140.617 36.9613L144.271 38.5898C145.02 36.9081 146.019 35.6926 147.237 34.8525L144.966 31.5599ZM140.614 36.9678C139.616 39.2295 139.15 41.8116 139.151 44.663L143.151 44.6617C143.15 42.2404 143.546 40.2313 144.274 38.5833L140.614 36.9678ZM139.151 44.663C139.152 47.5656 139.609 50.1904 140.585 52.4891L144.267 50.9257C143.545 49.2249 143.152 47.1531 143.151 44.6617L139.151 44.663ZM140.59 52.5008C141.579 54.7894 143.008 56.6517 144.908 57.9974L147.22 54.7332C145.998 53.8677 145.001 52.6248 144.262 50.9139L140.59 52.5008ZM144.915 58.0026C146.862 59.3683 149.122 60.0234 151.61 60.0226L151.609 56.0226C149.855 56.0232 148.417 55.5734 147.212 54.7279L144.915 58.0026ZM151.61 60.0226C153.239 60.0221 154.776 59.7373 156.19 59.1334L154.619 55.4548C153.761 55.8213 152.768 56.0222 151.609 56.0226L151.61 60.0226ZM156.19 59.1334C157.598 58.5323 158.811 57.6568 159.802 56.5116L156.779 53.8929C156.195 54.5664 155.484 55.0855 154.619 55.4548L156.19 59.1334ZM159.802 56.5116C160.809 55.3494 161.503 53.9763 161.906 52.4351L158.036 51.4229C157.774 52.4273 157.347 53.2364 156.779 53.8929L159.802 56.5116ZM159.972 53.929L165.336 53.9272L165.334 49.9272L159.971 49.929L159.972 53.929ZM163.356 51.6369C163.1 53.3857 162.47 54.9378 161.467 56.323L164.707 58.6693C166.096 56.7507 166.966 54.5902 167.314 52.2176L163.356 51.6369ZM161.465 56.3257C160.489 57.6781 159.181 58.7776 157.494 59.6154L159.273 63.1981C161.494 62.0953 163.322 60.5877 164.708 58.6666L161.465 56.3257ZM157.5 59.6126C155.883 60.4089 153.938 60.84 151.611 60.8408L151.612 64.8408C154.436 64.8399 157.006 64.3149 159.267 63.2009L157.5 59.6126ZM172.179 62.1068L170.179 62.1075L170.18 64.1075L172.18 64.1068L172.179 62.1068ZM172.178 58.0159L170.599 56.7878L170.178 57.3298L170.178 58.0166L172.178 58.0159ZM191.988 32.555L193.566 33.7831L193.988 33.2411L193.988 32.5543L191.988 32.555ZM191.988 32.1913L193.988 32.1907L193.987 30.1907L191.987 30.1913L191.988 32.1913ZM172.806 32.1975L170.806 32.1982L170.806 34.1982L172.806 34.1975L172.806 32.1975ZM172.804 27.1975L172.804 25.1975L170.804 25.1982L170.804 27.1982L172.804 27.1975ZM198.895 27.1891L200.895 27.1884L200.894 25.1884L198.894 25.1891L198.895 27.1891ZM198.897 31.4618L200.487 32.6741L200.897 32.1367L200.897 31.4612L198.897 31.4618ZM179.632 56.7408L178.041 55.5285L177.632 56.0659L177.632 56.7414L179.632 56.7408ZM179.632 57.1044L177.632 57.1051L177.633 59.1051L179.633 59.1044L179.632 57.1044ZM199.541 57.098L201.541 57.0973L201.541 55.0973L199.541 55.098L199.541 57.098ZM199.543 62.098L199.543 64.098L201.543 64.0973L201.543 62.0973L199.543 62.098ZM174.179 62.1062L174.178 58.0153L170.178 58.0166L170.179 62.1075L174.179 62.1062ZM173.756 59.2441L193.566 33.7831L190.409 31.3268L170.599 56.7878L173.756 59.2441ZM193.988 32.5543L193.988 32.1907L189.988 32.192L189.988 32.5556L193.988 32.5543ZM191.987 30.1913L172.805 30.1975L172.806 34.1975L191.988 34.1913L191.987 30.1913ZM174.806 32.1969L174.804 27.1969L170.804 27.1982L170.806 32.1982L174.806 32.1969ZM172.805 29.1975L198.896 29.1891L198.894 25.1891L172.804 25.1975L172.805 29.1975ZM196.895 27.1897L196.897 31.4625L200.897 31.4612L200.895 27.1884L196.895 27.1897ZM197.306 30.2496L178.041 55.5285L181.223 57.953L200.487 32.6741L197.306 30.2496ZM177.632 56.7414L177.632 57.1051L181.632 57.1038L181.632 56.7401L177.632 56.7414ZM179.633 59.1044L199.542 59.098L199.541 55.098L179.631 55.1044L179.633 59.1044ZM197.541 57.0986L197.543 62.0986L201.543 62.0973L201.541 57.0973L197.541 57.0986ZM199.542 60.098L172.179 60.1068L172.18 64.1068L199.543 64.098L199.542 60.098ZM213.168 62.0936L213.168 64.0936L215.168 64.0929L215.168 62.0929L213.168 62.0936ZM207.804 62.0953L205.804 62.0959L205.805 64.0959L207.805 64.0953L207.804 62.0953ZM207.793 27.1862L207.792 25.1862L205.792 25.1869L205.793 27.1869L207.793 27.1862ZM212.975 27.1845L214.975 27.1839L214.974 25.1839L212.974 25.1845L212.975 27.1845ZM212.976 32.6391L210.976 32.6397L210.977 34.6397L212.977 34.6391L212.976 32.6391ZM213.431 32.6389L213.432 34.6389L214.711 34.6385L215.247 33.4765L213.431 32.6389ZM217.157 28.365L218.242 30.045L218.253 30.038L217.157 28.365ZM229.816 28.1791L228.857 29.9341L228.868 29.9403L229.816 28.1791ZM233.954 32.5414L232.168 33.4419L232.171 33.4475L233.954 32.5414ZM235.441 62.0863L235.441 64.0863L237.441 64.0857L237.441 62.0857L235.441 62.0863ZM230.077 62.0881L228.077 62.0887L228.078 64.0887L230.078 64.0881L230.077 62.0881ZM227.931 33.8615L226.461 35.2174L226.468 35.2245L227.931 33.8615ZM217.476 32.6603L216.511 30.9086L216.503 30.9133L217.476 32.6603ZM214.318 35.9114L212.56 34.9582L212.56 34.9582L214.318 35.9114ZM211.161 41.0942L211.168 62.0942L215.168 62.0929L215.161 41.0929L211.161 41.0942ZM213.167 60.0936L207.804 60.0953L207.805 64.0953L213.168 64.0936L213.167 60.0936ZM209.804 62.0946L209.793 27.1856L205.793 27.1869L205.804 62.0959L209.804 62.0946ZM207.794 29.1862L212.975 29.1845L212.974 25.1845L207.792 25.1862L207.794 29.1862ZM210.975 27.1852L210.976 32.6397L214.976 32.6384L214.975 27.1839L210.975 27.1852ZM212.977 34.6391L213.432 34.6389L213.43 30.6389L212.976 30.6391L212.977 34.6391ZM215.247 33.4765C215.903 32.0537 216.889 30.919 218.242 30.045L216.072 26.685C214.092 27.9636 212.594 29.6781 211.615 31.8014L215.247 33.4765ZM218.253 30.038C219.504 29.2186 221.241 28.7273 223.612 28.7265L223.61 24.7265C220.708 24.7275 218.143 25.3285 216.061 26.6919L218.253 30.038ZM223.612 28.7265C225.697 28.7259 227.424 29.1512 228.857 29.934L230.775 26.4241C228.661 25.2687 226.252 24.7257 223.61 24.7265L223.612 28.7265ZM228.868 29.9403C230.249 30.683 231.35 31.8202 232.168 33.4419L235.739 31.6408C234.586 29.3541 232.929 27.5831 230.764 26.4178L228.868 29.9403ZM232.171 33.4475C232.971 35.0227 233.432 37.1411 233.433 39.9052L237.433 39.9039C237.432 36.7286 236.907 33.9382 235.737 31.6352L232.171 33.4475ZM233.433 39.9052L233.441 62.087L237.441 62.0857L237.433 39.9039L233.433 39.9052ZM235.44 60.0863L230.076 60.0881L230.078 64.0881L235.441 64.0863L235.44 60.0863ZM232.077 62.0874L232.07 40.2693L228.07 40.2706L228.077 62.0887L232.077 62.0874ZM232.07 40.2693C232.069 37.1833 231.261 34.5019 229.395 32.4985L226.468 35.2245C227.451 36.2808 228.069 37.8717 228.07 40.2706L232.07 40.2693ZM229.402 32.5057C227.529 30.4748 224.999 29.5443 222.066 29.5452L222.068 33.5452C224.105 33.5446 225.484 34.1582 226.461 35.2173L229.402 32.5057ZM222.066 29.5452C220.056 29.5459 218.187 29.9853 216.511 30.9086L218.442 34.412C219.462 33.8496 220.654 33.5457 222.068 33.5452L222.066 29.5452ZM216.503 30.9133C214.817 31.8525 213.502 33.2215 212.56 34.9582L216.077 36.8646C216.68 35.7522 217.469 34.9539 218.45 34.4074L216.503 30.9133ZM212.56 34.9582C211.594 36.7405 211.16 38.8136 211.161 41.0942L215.161 41.0929C215.16 39.313 215.498 37.9312 216.077 36.8646L212.56 34.9582ZM251.173 60.5813L250.121 62.2823L250.127 62.2862L250.134 62.29L251.173 60.5813ZM245.557 54.3103L243.757 55.181L243.763 55.1932L245.557 54.3103ZM245.551 35.4467L243.748 34.5809L243.746 34.5851L245.551 35.4467ZM251.049 29.0358L252.142 30.7111L252.144 30.7094L251.049 29.0358ZM264.708 27.6223L265.354 25.7297L265.354 25.7296L264.708 27.6223ZM269.55 30.5753L268.182 32.0348L268.19 32.0424L269.55 30.5753ZM273.029 35.9378L274.893 35.2141L274.893 35.2141L273.029 35.9378ZM274.327 46.4374L274.328 48.4374L276.328 48.4367L276.327 46.4367L274.327 46.4374ZM247.418 46.4461L245.418 46.4468L245.419 48.4468L247.419 48.4461L247.418 46.4461ZM247.417 41.8097L247.416 39.8097L245.416 39.8104L245.417 41.8104L247.417 41.8097ZM268.871 41.8028L268.872 43.8028L270.872 43.8021L270.871 41.8021L268.871 41.8028ZM267.688 36.5304L265.899 37.4255L265.903 37.4324L265.906 37.4394L267.688 36.5304ZM264.369 32.8724L263.306 34.5668L263.314 34.5718L264.369 32.8724ZM253.778 33.1259L254.899 34.7821L254.902 34.7796L253.778 33.1259ZM250.211 37.2179L248.419 36.3305L248.419 36.3305L250.211 37.2179ZM250.329 52.4224L248.538 53.3115L248.542 53.3204L248.547 53.3293L250.329 52.4224ZM254.172 56.5803L253.164 58.3082L253.177 58.3151L254.172 56.5803ZM263.695 57.3954L264.35 59.2848L264.358 59.2823L264.365 59.2798L263.695 57.3954ZM266.671 55.5762L268.06 57.0159L268.066 57.0095L268.073 57.0029L266.671 55.5762ZM268.602 52.5302L269.142 50.6044L267.374 50.1086L266.729 51.8285L268.602 52.5302ZM273.784 53.983L275.695 54.5752L276.303 52.6121L274.324 52.0573L273.784 53.983ZM271.036 58.6203L272.467 60.0175L272.475 60.0093L271.036 58.6203ZM266.264 61.7127L266.982 63.5796L266.995 63.5745L266.264 61.7127ZM259.878 60.8057C256.815 60.8067 254.287 60.1344 252.212 58.8725L250.134 62.29C252.939 63.9963 256.214 64.8069 259.879 64.8057L259.878 60.8057ZM252.225 58.8802C250.135 57.5883 248.514 55.7889 247.352 53.4275L243.763 55.1932C245.239 58.1946 247.361 60.5758 250.121 62.2823L252.225 58.8802ZM247.358 53.4397C246.208 51.062 245.601 48.2334 245.6 44.9012L241.6 44.9025C241.601 48.7219 242.299 52.1656 243.757 55.181L247.358 53.4397ZM245.6 44.9012C245.599 41.5697 246.204 38.7218 247.356 36.3083L243.746 34.5851C242.294 37.627 241.598 41.0825 241.6 44.9025L245.6 44.9012ZM247.354 36.3126C248.527 33.8702 250.126 32.0254 252.142 30.7111L249.957 27.3605C247.276 29.1084 245.21 31.5375 243.748 34.5809L247.354 36.3126ZM252.144 30.7094C254.145 29.4002 256.512 28.7159 259.322 28.715L259.32 24.715C255.827 24.7161 252.68 25.579 249.954 27.3622L252.144 30.7094ZM259.322 28.715C260.913 28.7145 262.49 28.9784 264.061 29.515L265.354 25.7296C263.379 25.0552 261.365 24.7143 259.32 24.715L259.322 28.715ZM264.061 29.515C265.549 30.023 266.921 30.8528 268.182 32.0348L270.917 29.1158C269.269 27.5714 267.412 26.4326 265.354 25.7297L264.061 29.515ZM268.19 32.0424C269.382 33.1462 270.387 34.6604 271.164 36.6615L274.893 35.2141C273.941 32.7613 272.627 30.7004 270.909 29.1082L268.19 32.0424ZM271.164 36.6615C271.913 38.5907 272.326 41.071 272.327 44.1653L276.327 44.164C276.326 40.7432 275.873 37.7389 274.893 35.2141L271.164 36.6615ZM272.327 44.1653L272.327 46.438L276.327 46.4367L276.327 44.164L272.327 44.1653ZM274.327 44.4374L247.418 44.4461L247.419 48.4461L274.328 48.4374L274.327 44.4374ZM249.418 46.4455L249.417 41.8091L245.417 41.8104L245.418 46.4468L249.418 46.4455ZM247.418 43.8097L268.872 43.8028L268.871 39.8028L247.416 39.8097L247.418 43.8097ZM270.871 41.8021C270.871 39.5598 270.42 37.484 269.469 35.6215L265.906 37.4394C266.533 38.6673 266.871 40.1064 266.871 41.8034L270.871 41.8021ZM269.476 35.6354C268.541 33.7663 267.184 32.2657 265.423 31.1731L263.314 34.5718C264.433 35.2662 265.288 36.2042 265.899 37.4255L269.476 35.6354ZM265.431 31.1781C263.642 30.0556 261.579 29.5324 259.322 29.5332L259.323 33.5332C260.945 33.5326 262.246 33.9023 263.306 34.5667L265.431 31.1781ZM259.322 29.5332C256.84 29.534 254.587 30.1565 252.653 31.4721L254.902 34.7796C256.089 33.973 257.533 33.5337 259.323 33.5332L259.322 29.5332ZM252.657 31.4697C250.823 32.7107 249.404 34.3404 248.419 36.3305L252.003 38.1053C252.684 36.7313 253.642 35.6329 254.899 34.7821L252.657 31.4697ZM248.419 36.3305C247.446 38.2958 246.962 40.4038 246.963 42.6281L250.963 42.6268C250.962 41.0026 251.311 39.5042 252.003 38.1053L248.419 36.3305ZM246.963 42.6281L246.964 45.719L250.964 45.7177L250.963 42.6268L246.963 42.6281ZM246.964 45.719C246.965 48.5777 247.458 51.1345 248.538 53.3115L252.121 51.5334C251.382 50.0443 250.964 48.1317 250.964 45.7177L246.964 45.719ZM248.547 53.3293C249.632 55.4623 251.17 57.1457 253.165 58.3082L255.179 54.8524C253.9 54.1068 252.877 53.0184 252.112 51.5156L248.547 53.3293ZM253.177 58.3151C255.159 59.4522 257.414 59.9883 259.877 59.9875L259.876 55.9875C258.006 55.9881 256.458 55.5861 255.167 54.8455L253.177 58.3151ZM259.877 59.9875C261.472 59.987 262.971 59.7636 264.35 59.2848L263.039 55.5059C262.146 55.8158 261.1 55.9871 259.876 55.9875L259.877 59.9875ZM264.365 59.2798C265.769 58.7803 267.01 58.0279 268.06 57.0159L265.283 54.1365C264.666 54.7312 263.923 55.1915 263.025 55.511L264.365 59.2798ZM268.073 57.0029C269.136 55.9588 269.93 54.6873 270.475 53.2318L266.729 51.8285C266.366 52.7975 265.873 53.5568 265.27 54.1496L268.073 57.0029ZM268.062 54.4559L273.245 55.9088L274.324 52.0573L269.142 50.6044L268.062 54.4559ZM271.874 53.3908C271.423 54.8475 270.669 56.1209 269.597 57.2313L272.475 60.0093C273.978 58.4522 275.057 56.634 275.695 54.5752L271.874 53.3908ZM269.605 57.2231C268.535 58.3187 267.191 59.2005 265.534 59.8509L266.995 63.5745C269.125 62.7388 270.962 61.559 272.467 60.0175L269.605 57.2231ZM265.547 59.8459C263.916 60.4726 262.036 60.805 259.878 60.8057L259.879 64.8057C262.448 64.8049 264.825 64.4086 266.982 63.5796L265.547 59.8459ZM289.905 74.8869L290.578 73.0035L290.571 73.0011L290.564 72.9987L289.905 74.8869ZM285.245 72.2975L286.554 70.7851L286.552 70.7838L285.245 72.2975ZM282.312 68.8893L281.162 67.2529L279.639 68.323L280.597 69.9189L282.312 68.8893ZM286.584 65.888L288.174 64.6754L287.008 63.1456L285.434 64.2515L286.584 65.888ZM288.425 68.0692L289.918 66.7383L289.912 66.7315L289.906 66.7247L288.425 68.0692ZM291.472 70.2273L292.332 68.4217L292.323 68.4174L291.472 70.2273ZM303.562 69.1097L304.756 70.7141L304.756 70.7141L303.562 69.1097ZM306.308 55.6088L308.308 55.6082L308.307 53.6082L306.307 53.6088L306.308 55.6088ZM305.853 55.609L305.853 53.609L304.738 53.6094L304.152 54.5568L305.853 55.609ZM304.172 57.9732L302.59 56.7493L302.587 56.753L304.172 57.9732ZM301.082 60.4515L302.025 62.2153L302.032 62.2114L301.082 60.4515ZM288.082 59.5238L287.055 61.2402L287.06 61.2432L288.082 59.5238ZM282.784 53.7074L281 54.6109L281.004 54.6193L282.784 53.7074ZM282.733 35.0938L284.54 35.9502L284.542 35.9462L282.733 35.0938ZM287.981 28.9102L289.07 30.5878L289.078 30.5826L287.981 28.9102ZM301.162 27.8378L300.175 29.577L300.187 29.5836L300.198 29.5901L301.162 27.8378ZM304.254 30.3822L302.651 31.5787L302.662 31.593L302.673 31.6071L304.254 30.3822ZM305.937 32.6999L304.26 33.7904L304.852 34.7002L305.937 34.6999L305.937 32.6999ZM306.482 32.6997L306.483 34.6997L308.483 34.6991L308.482 32.6991L306.482 32.6997ZM306.48 27.1542L306.48 25.1542L304.48 25.1549L304.48 27.1549L306.48 27.1542ZM311.662 27.1526L313.662 27.1519L313.662 25.1519L311.662 25.1526L311.662 27.1526ZM309.631 70.3805L308.012 69.2062L308.006 69.2136L308.001 69.221L309.631 70.3805ZM304.178 74.5414L303.46 72.6746L303.452 72.6775L303.445 72.6804L304.178 74.5414ZM301.853 55.2239L300.747 53.5576L300.747 53.5576L301.853 55.2239ZM305.238 50.9728L307.084 51.7436L307.084 51.7436L305.238 50.9728ZM305.256 37.6774L307.117 36.9441L307.117 36.9441L305.256 37.6774ZM301.891 33.1557L300.708 34.7679L300.708 34.7679L301.891 33.1557ZM290.71 33.2503L289.499 31.6583L289.491 31.6642L290.71 33.2503ZM287.325 37.8877L285.462 37.1606L285.457 37.1733L287.325 37.8877ZM287.352 50.7741L285.499 51.5278L285.503 51.537L285.507 51.5461L287.352 50.7741ZM290.762 55.1366L289.608 56.77L289.617 56.7766L289.627 56.7831L290.762 55.1366ZM296.586 73.8847C294.158 73.8855 292.17 73.5726 290.578 73.0035L289.232 76.7702C291.367 77.5333 293.834 77.8856 296.588 77.8847L296.586 73.8847ZM290.564 72.9987C288.892 72.4147 287.571 71.6658 286.554 70.7851L283.936 73.8099C285.404 75.0799 287.19 76.0573 289.245 76.7751L290.564 72.9987ZM286.552 70.7838C285.462 69.8423 284.63 68.8651 284.027 67.8598L280.597 69.9189C281.449 71.3373 282.573 72.6323 283.938 73.8111L286.552 70.7838ZM283.462 70.5258L287.734 67.5244L285.434 64.2515L281.162 67.2529L283.462 70.5258ZM284.993 67.1006C285.523 67.7957 286.177 68.568 286.945 69.4136L289.906 66.7247C289.189 65.9345 288.614 65.2527 288.174 64.6754L284.993 67.1006ZM286.933 69.4001C287.897 70.4817 289.153 71.3472 290.621 72.0372L292.323 68.4174C291.214 67.8961 290.439 67.3229 289.918 66.7383L286.933 69.4001ZM290.611 72.0329C292.278 72.8267 294.308 73.1582 296.586 73.1575L296.585 69.1575C294.651 69.1581 293.272 68.8694 292.332 68.4217L290.611 72.0329ZM296.586 73.1575C299.732 73.1564 302.505 72.3901 304.756 70.7141L302.368 67.5054C300.954 68.5579 299.075 69.1566 296.585 69.1575L296.586 73.1575ZM304.756 70.7141C307.232 68.8714 308.311 66.0498 308.31 62.6991L304.31 62.7004C304.311 65.1679 303.558 66.6196 302.368 67.5054L304.756 70.7141ZM308.31 62.6991L308.308 55.6082L304.308 55.6095L304.31 62.7004L308.31 62.6991ZM306.307 53.6088L305.853 53.609L305.854 57.609L306.308 57.6088L306.307 53.6088ZM304.152 54.5568C303.81 55.1102 303.296 55.8369 302.59 56.7493L305.754 59.197C306.502 58.2302 307.109 57.3808 307.554 56.6612L304.152 54.5568ZM302.587 56.753C302.092 57.3969 301.307 58.0573 300.132 58.6915L302.032 62.2114C303.554 61.3902 304.829 60.3984 305.757 59.1933L302.587 56.753ZM300.139 58.6876C299.206 59.1866 297.769 59.5207 295.673 59.5214L295.674 63.5214C298.123 63.5206 300.292 63.1414 302.025 62.2153L300.139 58.6876ZM295.673 59.5214C293.184 59.5222 291.012 58.9386 289.103 57.8044L287.06 61.2432C289.637 62.7743 292.526 63.5224 295.674 63.5214L295.673 59.5214ZM289.108 57.8075C287.234 56.6864 285.715 55.0421 284.564 52.7955L281.004 54.6193C282.461 57.4627 284.474 59.696 287.055 61.2402L289.108 57.8075ZM284.569 52.8039C283.455 50.6049 282.851 47.841 282.85 44.4346L278.85 44.4359C278.851 48.3023 279.536 51.7198 281 54.6109L284.569 52.8039ZM282.85 44.4346C282.848 41.0918 283.435 38.2822 284.54 35.9502L280.926 34.2373C279.517 37.2092 278.848 40.6273 278.85 44.4359L282.85 44.4346ZM284.542 35.9462C285.657 33.58 287.172 31.8199 289.07 30.5878L286.892 27.2327C284.306 28.9111 282.322 31.2733 280.924 34.2413L284.542 35.9462ZM289.078 30.5826C290.963 29.3463 293.165 28.704 295.754 28.7032L295.752 24.7032C292.462 24.7042 289.483 25.5334 286.884 27.2378L289.078 30.5826ZM295.754 28.7032C297.835 28.7025 299.254 29.0539 300.175 29.577L302.15 26.0986C300.404 25.1074 298.216 24.7024 295.752 24.7032L295.754 28.7032ZM300.198 29.5901C301.367 30.2332 302.152 30.9097 302.651 31.5787L305.857 29.1858C304.931 27.9462 303.655 26.9264 302.126 26.0855L300.198 29.5901ZM302.673 31.6071C303.385 32.5266 303.909 33.2503 304.26 33.7904L307.613 31.6094C307.176 30.9376 306.578 30.1162 305.835 29.1574L302.673 31.6071ZM305.937 34.6999L306.483 34.6997L306.481 30.6997L305.936 30.6999L305.937 34.6999ZM308.482 32.6991L308.48 27.1536L304.48 27.1549L304.482 32.7003L308.482 32.6991ZM306.481 29.1542L311.663 29.1526L311.662 25.1526L306.48 25.1542L306.481 29.1542ZM309.662 27.1532L309.674 63.0623L313.674 63.061L313.662 27.1519L309.662 27.1532ZM309.674 63.0623C309.675 65.7636 309.063 67.7565 308.012 69.2062L311.25 71.5548C312.924 69.246 313.675 66.3597 313.674 63.061L309.674 63.0623ZM308.001 69.221C306.894 70.7774 305.401 71.9281 303.46 72.6746L304.895 76.4081C307.529 75.3956 309.672 73.7724 311.26 71.54L308.001 69.221ZM303.445 72.6804C301.436 73.4712 299.159 73.8839 296.586 73.8847L296.588 77.8847C299.591 77.8838 302.374 77.4008 304.91 76.4023L303.445 72.6804ZM296.4 58.703C298.862 58.7022 301.084 58.1347 302.959 56.8903L300.747 53.5576C299.653 54.2839 298.239 54.7024 296.398 54.703L296.4 58.703ZM302.959 56.8903C304.813 55.6596 306.179 53.9104 307.084 51.7436L303.393 50.2021C302.753 51.7327 301.862 52.8176 300.747 53.5576L302.959 56.8903ZM307.084 51.7436C307.982 49.5915 308.396 47.1036 308.395 44.3354L304.395 44.3367C304.396 46.7201 304.038 48.6567 303.393 50.2021L307.084 51.7436ZM308.395 44.3354C308.394 41.6222 307.985 39.1459 307.117 36.9441L303.396 38.4106C304.044 40.0569 304.394 42.0197 304.395 44.3367L308.395 44.3354ZM307.117 36.9441C306.238 34.7134 304.9 32.8838 303.075 31.5436L300.708 34.7679C301.853 35.6085 302.758 36.7934 303.396 38.4106L307.117 36.9441ZM303.075 31.5436C301.187 30.1571 298.917 29.5203 296.39 29.5211L296.391 33.5211C298.228 33.5206 299.626 33.9735 300.708 34.7679L303.075 31.5436ZM296.39 29.5211C293.768 29.522 291.425 30.1932 289.499 31.6583L291.92 34.8422C293.023 34.0033 294.468 33.5218 296.391 33.5211L296.39 29.5211ZM289.491 31.6642C287.674 33.0605 286.337 34.9166 285.462 37.1606L289.188 38.6148C289.826 36.9795 290.746 35.7441 291.928 34.8363L289.491 31.6642ZM285.457 37.1733C284.616 39.3705 284.212 41.7687 284.213 44.3433L288.213 44.342C288.212 42.1893 288.549 40.2842 289.193 38.6021L285.457 37.1733ZM284.213 44.3433C284.214 46.974 284.626 49.3817 285.499 51.5278L289.204 50.0203C288.561 48.4397 288.214 46.5597 288.213 44.342L284.213 44.3433ZM285.507 51.5461C286.411 53.708 287.774 55.4738 289.608 56.77L291.916 53.5032C290.75 52.6792 289.839 51.5366 289.197 50.0021L285.507 51.5461ZM289.627 56.7831C291.543 58.1046 293.841 58.7038 296.4 58.703L296.398 54.703C294.472 54.7036 293.012 54.2586 291.897 53.4901L289.627 56.7831ZM327.378 60.5338L326.306 62.2229L326.311 62.2259L327.378 60.5338ZM321.83 54.2402L320.033 55.119L320.037 55.1271L321.83 54.2402ZM321.824 35.2629L320.029 34.3811L320.025 34.3892L321.824 35.2629ZM327.367 28.9429L326.3 27.2515L326.295 27.2546L327.367 28.9429ZM343.935 28.9376L342.864 30.6266L342.869 30.6297L343.935 28.9376ZM349.483 35.254L347.684 36.1288L347.688 36.1369L349.483 35.254ZM349.489 54.2312L347.696 53.3454L347.692 53.3536L349.489 54.2312ZM343.946 60.5285L342.878 58.8371L342.874 58.8402L343.946 60.5285ZM341.581 56.1202L340.336 54.5543L340.336 54.5543L341.581 56.1202ZM345.011 51.2781L346.886 51.9735L346.886 51.9735L345.011 51.2781ZM345.007 38.2554L346.883 37.5634L346.883 37.5634L345.007 38.2554ZM341.573 33.3702L342.826 31.811L342.826 31.811L341.573 33.3702ZM329.755 33.374L328.501 31.8156L328.501 31.8156L329.755 33.374ZM326.325 38.2615L324.448 37.5707L324.448 37.5707L326.325 38.2615ZM326.329 51.2842L324.454 51.9808L324.454 51.9808L326.329 51.2842ZM329.762 56.124L331.006 54.5574L331.006 54.5574L329.762 56.124ZM335.673 60.7812C332.852 60.7821 330.466 60.1161 328.444 58.8418L326.311 62.2259C329.048 63.9501 332.192 64.7823 335.674 64.7812L335.673 60.7812ZM328.449 58.8448C326.417 57.5565 324.807 55.7469 323.623 53.3532L320.037 55.1271C321.522 58.1266 323.61 60.5127 326.306 62.2228L328.449 58.8448ZM323.627 53.3614C322.466 50.9879 321.851 48.1478 321.85 44.7856L317.85 44.7869C317.851 48.6369 318.556 52.0994 320.033 55.119L323.627 53.3614ZM321.85 44.7856C321.849 41.3907 322.462 38.5263 323.623 36.1366L320.025 34.3892C318.551 37.4246 317.848 40.9092 317.85 44.7869L321.85 44.7856ZM323.619 36.1447C324.803 33.7351 326.412 31.9191 328.439 30.6312L326.295 27.2546C323.597 28.9683 321.51 31.3656 320.029 34.3811L323.619 36.1447ZM328.435 30.6343C330.456 29.3587 332.842 28.6912 335.663 28.6902L335.661 24.6902C332.179 24.6914 329.035 25.5256 326.3 27.2515L328.435 30.6343ZM335.663 28.6902C338.484 28.6893 340.86 29.3554 342.864 30.6266L345.007 27.2486C342.283 25.5213 339.143 24.6891 335.661 24.6902L335.663 28.6902ZM342.869 30.6297C344.91 31.9156 346.516 33.7272 347.684 36.1288L351.281 34.3791C349.812 31.3573 347.719 28.958 345.002 27.2455L342.869 30.6297ZM347.688 36.1369C348.863 38.5238 349.485 41.3848 349.486 44.7767L353.486 44.7754C353.485 40.8945 352.772 37.4075 351.278 34.371L347.688 36.1369ZM349.486 44.7767C349.487 48.1357 348.868 50.9732 347.696 53.3454L351.282 55.117C352.775 52.0945 353.487 48.6285 353.486 44.7754L349.486 44.7767ZM347.692 53.3536C346.526 55.7407 344.921 57.548 342.878 58.8371L345.013 62.2199C347.727 60.5074 349.817 58.1166 351.286 55.1089L347.692 53.3536ZM342.874 58.8402C340.87 60.1126 338.494 60.7802 335.673 60.7812L335.674 64.7812C339.156 64.78 342.295 63.9458 345.018 62.2168L342.874 58.8402ZM335.673 59.963C338.419 59.9621 340.856 59.2509 342.825 57.686L340.336 54.5543C339.216 55.445 337.713 55.9623 335.671 55.963L335.673 59.963ZM342.825 57.686C344.679 56.2127 346.028 54.2873 346.886 51.9735L343.136 50.5827C342.51 52.2694 341.573 53.572 340.336 54.5543L342.825 57.686ZM346.886 51.9735C347.718 49.7306 348.123 47.3258 348.122 44.7771L344.122 44.7784C344.123 46.8964 343.787 48.8252 343.136 50.5827L346.886 51.9735ZM348.122 44.7771C348.122 42.2283 347.715 39.8181 346.883 37.5634L343.13 38.9474C343.785 40.7226 344.122 42.6606 344.122 44.7784L348.122 44.7771ZM346.883 37.5634C346.025 35.2375 344.678 33.2988 342.826 31.811L340.321 34.9293C341.56 35.9253 342.502 37.2435 343.13 38.9474L346.883 37.5634ZM342.826 31.811C340.855 30.2278 338.415 29.5075 335.663 29.5084L335.664 33.5084C337.7 33.5078 339.2 34.0286 340.321 34.9293L342.826 31.811ZM335.663 29.5084C332.911 29.5093 330.471 30.2312 328.501 31.8156L331.009 34.9323C332.129 34.0309 333.628 33.5091 335.664 33.5084L335.663 29.5084ZM328.501 31.8156C326.651 33.3047 325.304 35.2442 324.448 37.5707L328.202 38.9523C328.829 37.248 329.77 35.9292 331.009 34.9323L328.501 31.8156ZM324.448 37.5707C323.618 39.8259 323.213 42.2364 323.213 44.7852L327.213 44.7839C327.213 42.6661 327.548 40.7278 328.202 38.9523L324.448 37.5707ZM323.213 44.7852C323.214 47.3338 323.621 49.7384 324.454 51.9808L328.204 50.5876C327.551 48.8305 327.214 46.9019 327.213 44.7839L323.213 44.7852ZM324.454 51.9808C325.314 54.294 326.664 56.2186 328.519 57.6906L331.006 54.5574C329.769 53.5758 328.83 52.2739 328.204 50.5876L324.454 51.9808ZM328.519 57.6906C330.49 59.2542 332.927 59.9639 335.673 59.963L335.671 55.963C333.63 55.9636 332.127 55.4473 331.006 54.5574L328.519 57.6906ZM366.755 15.4984L368.755 15.5249L368.782 13.4977L366.754 13.4984L366.755 15.4984ZM366.311 48.953L366.312 50.953L368.285 50.9524L368.311 48.9796L366.311 48.953ZM361.039 48.9548L359.039 48.9826L359.066 50.9554L361.039 50.9548L361.039 48.9548ZM360.573 15.5004L360.573 13.5004L358.545 13.501L358.573 15.5282L360.573 15.5004ZM360.793 61.2048L362.206 59.7902L362.206 59.7902L360.793 61.2048ZM366.563 55.4302L367.977 54.0156L367.977 54.0156L366.563 55.4302ZM367.201 60.3619L365.493 59.3212L365.484 59.3365L365.475 59.3521L367.201 60.3619ZM365.725 61.8623L366.754 63.577L366.76 63.5733L366.766 63.5696L365.725 61.8623ZM364.755 15.4718L364.311 48.9265L368.311 48.9796L368.755 15.5249L364.755 15.4718ZM366.311 46.9531L361.038 46.9548L361.039 50.9548L366.312 50.953L366.311 46.9531ZM363.038 48.9269L362.573 15.4725L358.573 15.5282L359.039 48.9826L363.038 48.9269ZM360.574 17.5004L366.756 17.4984L366.754 13.4984L360.573 13.5004L360.574 17.5004ZM363.679 60.4084C363.095 60.4086 362.64 60.2234 362.206 59.7902L359.379 62.6195C360.552 63.7918 362.021 64.409 363.68 64.4084L363.679 60.4084ZM362.206 59.7902C361.773 59.3569 361.587 58.9014 361.587 58.3182L357.587 58.3195C357.588 59.9788 358.206 61.4472 359.379 62.6195L362.206 59.7902ZM361.587 58.3182C361.587 57.7351 361.772 57.2794 362.205 56.8459L359.376 54.0184C358.204 55.1914 357.586 56.6602 357.587 58.3195L361.587 58.3182ZM362.205 56.8459C362.639 56.4123 363.094 56.2268 363.677 56.2266L363.676 52.2266C362.017 52.2272 360.548 52.8453 359.376 54.0184L362.205 56.8459ZM363.677 56.2266C364.26 56.2264 364.716 56.4117 365.15 56.8449L367.977 54.0156C366.804 52.8433 365.335 52.2261 363.676 52.2266L363.677 56.2266ZM365.15 56.8449C365.583 57.2782 365.769 57.7337 365.769 58.3169L369.769 58.3156C369.768 56.6563 369.15 55.1879 367.977 54.0156L365.15 56.8449ZM365.769 58.3169C365.769 58.6998 365.677 59.0202 365.493 59.3212L368.909 61.4025C369.483 60.4608 369.769 59.4174 369.769 58.3156L365.769 58.3169ZM365.475 59.3521C365.28 59.6847 365.025 59.9464 364.683 60.1551L366.766 63.5696C367.667 63.0202 368.395 62.2817 368.928 61.3717L365.475 59.3521ZM364.695 60.1477C364.422 60.3115 364.101 60.4083 363.679 60.4084L363.68 64.4084C364.773 64.4081 365.815 64.1409 366.754 63.577L364.695 60.1477ZM384.567 15.4926L386.567 15.5191L386.594 13.4919L384.567 13.4926L384.567 15.4926ZM384.124 48.9473L384.124 50.9473L386.097 50.9466L386.124 48.9738L384.124 48.9473ZM378.851 48.949L376.851 48.9768L376.879 50.9496L378.852 50.949L378.851 48.949ZM378.386 15.4946L378.385 13.4946L376.358 13.4952L376.386 15.5224L378.386 15.4946ZM378.605 61.1991L380.019 59.7844L380.019 59.7844L378.605 61.1991ZM384.376 55.4245L385.79 54.0098L385.79 54.0098L384.376 55.4245ZM385.014 60.3561L383.306 59.3154L383.297 59.3308L383.287 59.3463L385.014 60.3561ZM383.537 61.8566L384.567 63.5712L384.573 63.5675L384.579 63.5638L383.537 61.8566ZM382.568 15.4661L382.124 48.9208L386.124 48.9738L386.567 15.5191L382.568 15.4661ZM384.123 46.9473L378.85 46.949L378.852 50.949L384.124 50.9473L384.123 46.9473ZM380.851 48.9212L380.385 15.4668L376.386 15.5224L376.851 48.9768L380.851 48.9212ZM378.386 17.4946L384.568 17.4926L384.567 13.4926L378.385 13.4946L378.386 17.4946ZM381.491 60.4027C380.908 60.4029 380.452 60.2176 380.019 59.7844L377.191 62.6137C378.364 63.786 379.833 64.4032 381.492 64.4027L381.491 60.4027ZM380.019 59.7844C379.585 59.3512 379.4 58.8956 379.4 58.3124L375.4 58.3137C375.4 59.973 376.018 61.4414 377.191 62.6137L380.019 59.7844ZM379.4 58.3124C379.399 57.7293 379.585 57.2736 380.018 56.8401L377.188 54.0126C376.016 55.1856 375.399 56.6545 375.4 58.3137L379.4 58.3124ZM380.018 56.8401C380.451 56.4066 380.907 56.2211 381.49 56.2209L381.488 52.2209C379.829 52.2214 378.361 52.8395 377.188 54.0126L380.018 56.8401ZM381.49 56.2209C382.073 56.2207 382.529 56.4059 382.962 56.8391L385.79 54.0098C384.617 52.8375 383.148 52.2203 381.488 52.2209L381.49 56.2209ZM382.962 56.8391C383.396 57.2724 383.581 57.7279 383.581 58.3111L387.581 58.3098C387.581 56.6505 386.963 55.1821 385.79 54.0098L382.962 56.8391ZM383.581 58.3111C383.581 58.6941 383.489 59.0145 383.306 59.3154L386.722 61.3967C387.296 60.455 387.582 59.4117 387.581 58.3098L383.581 58.3111ZM383.287 59.3463C383.093 59.6789 382.837 59.9407 382.495 60.1493L384.579 63.5638C385.479 63.0145 386.208 62.2759 386.74 61.3659L383.287 59.3463ZM382.507 60.1419C382.235 60.3057 381.913 60.4025 381.491 60.4027L381.492 64.4027C382.585 64.4023 383.627 64.1351 384.567 63.5712L382.507 60.1419Z" fill="#0DBC79"/>
</svg>
